<?xml version="1.0"?>
<svg xmlns="http://www.w3.org/2000/svg" xmlns:xlink="http://www.w3.org/1999/xlink" xmlns:svgjs="http://svgjs.com/svgjs" version="1.1" width="512" height="512" x="0" y="0" viewBox="0 0 512 512" style="enable-background:new 0 0 512 512" xml:space="preserve" class=""><g><path xmlns="http://www.w3.org/2000/svg" d="m471.46 137.81v65.22a24.156 24.156 0 0 1 -24.16 24.15v-113.52a24.156 24.156 0 0 1 24.16 24.15z" fill="#7b8c93" data-original="#7d8696" style="" class=""/><path xmlns="http://www.w3.org/2000/svg" d="m447.3 114.25v112.2a74.67 74.67 0 0 1 -72.64 15.21 2.612 2.612 0 0 0 -3.44 2.48v106.95h-48.31v-179.55c0-41.3 32.97-75.67 74.27-76a74.6 74.6 0 0 1 50.12 18.71z" fill="#e2e3e7" data-original="#b3d1e7" style="" class=""/><path xmlns="http://www.w3.org/2000/svg" d="m371.22 351.09v34.3a24.156 24.156 0 0 1 -24.16 24.15c-13.34 0-24.15-10.81-24.15-18.11v-40.34z" fill="#e2e3e7" data-original="#81a4ca" style="" class=""/><path xmlns="http://www.w3.org/2000/svg" d="m189.09 266.55v40.34c0 7.3-10.81 18.11-24.15 18.11a24.156 24.156 0 0 1 -24.16-24.15v-34.3z" fill="#e2e3e7" data-original="#81a4ca" style="" class=""/><path xmlns="http://www.w3.org/2000/svg" d="m189.09 87v179.55h-48.31v-106.95a2.612 2.612 0 0 0 -3.44-2.48 74.67 74.67 0 0 1 -72.64-15.21v-112.2a74.6 74.6 0 0 1 50.12-18.71c41.3.33 74.27 34.7 74.27 76z" fill="#e2e3e7" data-original="#b3d1e7" style="" class=""/><path xmlns="http://www.w3.org/2000/svg" d="m64.7 141.91v.73a24.156 24.156 0 0 1 -24.16-24.15v-65.22a24.156 24.156 0 0 1 24.16-24.15z" fill="#7b8c93" data-original="#7d8696" style="" class=""/><path xmlns="http://www.w3.org/2000/svg" d="m166.78 300.85v-34.3h-26v34.3a24.156 24.156 0 0 0 24.16 24.15 26.533 26.533 0 0 0 13.23-3.65 24.146 24.146 0 0 1 -11.39-20.5z" fill="#bbc3c6" data-original="#6c8ead" style="" class=""/><path xmlns="http://www.w3.org/2000/svg" d="m126.717 12.22.414-.074a74.536 74.536 0 0 0 -62.431 17.564v112.2a74.535 74.535 0 0 0 47.36 18.82 75.893 75.893 0 0 0 15.178-1.117l-.555-.1a44.252 44.252 0 0 1 -35.983-43.613v-60.062a44.213 44.213 0 0 1 36.017-43.618z" fill="#bbc3c6" data-original="#90b0c4" style="" class=""/><path xmlns="http://www.w3.org/2000/svg" d="m166.78 159.6a2.612 2.612 0 0 0 -3.44-2.48 75.051 75.051 0 0 1 -22.56 3.626v105.8h26z" fill="#bbc3c6" data-original="#90b0c4" style="" class=""/><g xmlns="http://www.w3.org/2000/svg" fill="#284268"><path d="m348.505 176.067a6 6 0 0 0 6-6 43.129 43.129 0 0 1 24.214-38.752 6 6 0 1 0 -5.193-10.817 55.188 55.188 0 0 0 -31.021 49.569 6 6 0 0 0 6 6z" fill="#000000" data-original="#284268" style="" class=""/><path d="m342.505 197.373a6 6 0 0 0 12 0v-6.712a6 6 0 1 0 -12 0z" fill="#000000" data-original="#284268" style="" class=""/><path d="m326.16 407.847a33.5 33.5 0 0 0 14.9 7.106v83.4a6 6 0 0 0 12 0v-83.41a30.2 30.2 0 0 0 24.154-29.553v-136.734a80.663 80.663 0 0 0 71.461-15.511 30.188 30.188 0 0 0 28.78-30.119v-65.216a30.193 30.193 0 0 0 -28.624-30.116 80.717 80.717 0 0 0 -51.706-18.152c-44.232.354-80.218 37.138-80.218 82v127.875a6 6 0 0 0 12 0v-127.876c0-38.3 30.645-69.7 68.314-70a68.644 68.644 0 0 1 44.08 15.5v106.634a68.658 68.658 0 0 1 -64.657 12.317 8.867 8.867 0 0 0 -3.108-.463 8.623 8.623 0 0 0 -8.321 8.657v100.907h-36.305v-5.676a6 6 0 0 0 -12 0v52.012c0 5.489 3.458 11.627 9.25 16.418zm127.14-287.173a18.186 18.186 0 0 1 12.154 17.136v65.216a18.185 18.185 0 0 1 -12.154 17.135zm-124.39 236.419h36.308v27.851c0 10.212-8.358 18.813-18.567 18.6-10.276-.219-17.741-8.545-17.741-12.111z" fill="#000000" data-original="#284268" style="" class=""/><path d="m138.474 35.958a6 6 0 1 0 -5.193 10.817 43.13 43.13 0 0 1 24.219 38.753 6 6 0 1 0 12 0 55.189 55.189 0 0 0 -31.026-49.57z" fill="#000000" data-original="#284268" style="" class=""/><path d="m163.5 100.121a6 6 0 0 0 -6 6v6.712a6 6 0 0 0 12 0v-6.712a6 6 0 0 0 -6-6z" fill="#000000" data-original="#284268" style="" class=""/><path d="m63.315 148.6a80.666 80.666 0 0 0 71.467 15.511v37.389a6 6 0 0 0 12 0v-41.766a8.624 8.624 0 0 0 -6.718-8.536 9.166 9.166 0 0 0 -4.84.3 68.642 68.642 0 0 1 -64.524-12.367v-106.631a68.87 68.87 0 0 1 44.076-15.5c37.669.3 68.314 31.7 68.314 70v173.554h-36.308v-19.054a6 6 0 0 0 -6-6 6 6 0 0 0 -6 6v59.354a30.2 30.2 0 0 0 24.154 29.546v29.26a49.376 49.376 0 0 0 49.32 49.319h47.477a37.362 37.362 0 0 1 37.32 37.321v54.7a6 6 0 0 0 12 0v-54.7a49.376 49.376 0 0 0 -49.32-49.321h-47.477a37.362 37.362 0 0 1 -37.32-37.319v-29.246a33.526 33.526 0 0 0 14.9-7.106c5.792-4.792 9.25-10.93 9.25-16.419v-219.889c0-44.86-35.986-81.645-80.218-82a80.863 80.863 0 0 0 -51.7 18.152 30.192 30.192 0 0 0 -28.626 30.118v65.216a30.189 30.189 0 0 0 28.773 30.114zm119.775 158.289c0 3.566-7.465 11.892-17.741 12.111-10.209.217-18.567-8.384-18.567-18.6v-27.846h36.308zm-136.548-253.619a18.185 18.185 0 0 1 12.158-17.135v99.487a18.187 18.187 0 0 1 -12.154-17.136z" fill="#000000" data-original="#284268" style="" class=""/></g></g></svg>
