<?xml version="1.0" encoding="UTF-8"?>
<svg xmlns="http://www.w3.org/2000/svg" xmlns:xlink="http://www.w3.org/1999/xlink" xmlns:svgjs="http://svgjs.com/svgjs" version="1.1" width="512" height="512" x="0" y="0" viewBox="0 0 512 512" style="enable-background:new 0 0 512 512" xml:space="preserve" class="">
  <g>
    <g xmlns="http://www.w3.org/2000/svg" id="XMLID_479_">
      <path id="XMLID_1123_" d="m108.881 328 147.119-272v272z" fill="#7b8c93" data-original="#e2e9ee" style="" class=""/>
      <path id="XMLID_1122_" d="m452 328-196-318v318z" fill="#bbc3c6" data-original="#faf7f5" style="" class=""/>
      <path id="XMLID_1121_" d="m174.5 58h81.5v-48h-81.5l24 24z" fill="#bbc3c6" data-original="#ff7d97" style="" class=""/>
      <path id="XMLID_954_" d="m448 502h-384l-54-80h492z" fill="#7b8c93" data-original="#c68a65" style="" class=""/>
      <path id="XMLID_946_" d="m404 378h-296c-24.301 0-44 19.699-44 44h384c0-24.301-19.699-44-44-44z" fill="#bbc3c6" data-original="#ffcd69" style="" class=""/>
      <g id="XMLID_488_">
        <path id="XMLID_920_" d="m510.83 417.307c-1.735-3.266-5.132-5.307-8.83-5.307h-44.943c-4.705-25.012-26.699-44-53.057-44h-138v-30h186c3.624 0 6.965-1.961 8.731-5.125s1.683-7.037-.219-10.122l-196-318-.01.003c-1.761-2.85-4.905-4.756-8.502-4.756h-81.5c-4.044 0-7.691 2.437-9.239 6.173-1.548 3.737-.692 8.038 2.167 10.898l16.93 16.929-16.929 16.929c-2.86 2.86-3.715 7.161-2.167 10.898 1.547 3.736 5.194 6.173 9.238 6.173h63.64l-138.055 255.242c-1.676 3.1-1.598 6.852.206 9.878s5.067 4.88 8.59 4.88h137.119v30h-138c-26.358 0-48.352 18.988-53.057 44h-44.943c-3.698 0-7.095 2.041-8.83 5.307-1.736 3.266-1.527 7.223.542 10.288l54 80c1.859 2.755 4.965 4.405 8.288 4.405h384c3.323 0 6.43-1.65 8.288-4.405l54-80c2.07-3.066 2.278-7.023.542-10.288zm-244.83-372.024 168.09 272.717h-168.09zm-60.429-18.354-6.929-6.929h47.358v28h-47.358l6.929-6.929c3.906-3.905 3.906-10.237 0-14.142zm40.429 68.579v222.492h-120.342zm196.686 396.492h-373.371l-40.5-60h182.249c5.523 0 10-4.478 10-10s-4.477-10-10-10h-135.561c4.281-13.883 17.229-24 32.497-24h296c15.269 0 28.217 10.117 32.497 24h-135.434c-5.522 0-10 4.478-10 10s4.478 10 10 10h182.123z" fill="#000000" data-original="#000000" style="" class=""/>
        <path id="XMLID_927_" d="m256.06 411.939c-2.63 0-5.21 1.061-7.07 2.92-1.86 1.87-2.93 4.44-2.93 7.08 0 2.63 1.07 5.21 2.93 7.07s4.44 2.93 7.07 2.93c2.629 0 5.209-1.069 7.08-2.93 1.86-1.86 2.92-4.44 2.92-7.07 0-2.64-1.06-5.21-2.92-7.08-1.87-1.859-4.45-2.92-7.08-2.92z" fill="#000000" data-original="#000000" style="" class=""/>
      </g>
    </g>
  </g>
</svg>
