<?xml version="1.0"?>
<svg xmlns="http://www.w3.org/2000/svg" xmlns:xlink="http://www.w3.org/1999/xlink" xmlns:svgjs="http://svgjs.com/svgjs" version="1.1" width="512" height="512" x="0" y="0" viewBox="0 0 389.12 389.12" style="enable-background:new 0 0 512 512" xml:space="preserve" class=""><g>
<path xmlns="http://www.w3.org/2000/svg" style="" d="M194.56,6.827C90.878,6.827,6.827,90.878,6.827,194.56S90.878,382.293,194.56,382.293  s187.733-84.052,187.733-187.733S298.242,6.827,194.56,6.827z M194.56,232.107c-20.736,0-37.547-16.811-37.547-37.547  s16.811-37.547,37.547-37.547s37.547,16.811,37.547,37.547S215.296,232.107,194.56,232.107z" fill="#e2e3e7" data-original="#dddddd"/>
<path xmlns="http://www.w3.org/2000/svg" d="M194.56,389.12C87.281,389.12,0,301.839,0,194.56S87.281,0,194.56,0s194.56,87.281,194.56,194.56  S301.839,389.12,194.56,389.12z M194.56,13.653c-99.753,0-180.907,81.154-180.907,180.907S94.807,375.467,194.56,375.467  s180.907-81.154,180.907-180.907S294.313,13.653,194.56,13.653z M194.56,238.933c-24.467,0-44.373-19.907-44.373-44.373  s19.907-44.373,44.373-44.373s44.373,19.907,44.373,44.373S219.027,238.933,194.56,238.933z M194.56,163.84  c-16.94,0-30.72,13.78-30.72,30.72s13.78,30.72,30.72,30.72s30.72-13.78,30.72-30.72S211.5,163.84,194.56,163.84z" fill="#000000" data-original="#000000" style="" class=""/>
<path xmlns="http://www.w3.org/2000/svg" style="" d="M194.56,129.707c-35.818,0-64.853,29.036-64.853,64.853s29.036,64.853,64.853,64.853  s64.853-29.036,64.853-64.853S230.378,129.707,194.56,129.707z M194.56,232.107c-20.736,0-37.547-16.811-37.547-37.547  s16.811-37.547,37.547-37.547s37.547,16.811,37.547,37.547S215.296,232.107,194.56,232.107z" fill="#7b8c93" data-original="#2a8ee6" class=""/>
<path xmlns="http://www.w3.org/2000/svg" d="M194.56,266.24c-39.526,0-71.68-32.154-71.68-71.68s32.154-71.68,71.68-71.68s71.68,32.154,71.68,71.68  S234.086,266.24,194.56,266.24z M194.56,136.533c-31.993,0-58.027,26.033-58.027,58.027s26.033,58.027,58.027,58.027  s58.027-26.033,58.027-58.027S226.553,136.533,194.56,136.533z M194.56,238.933c-24.467,0-44.373-19.907-44.373-44.373  s19.907-44.373,44.373-44.373s44.373,19.907,44.373,44.373S219.027,238.933,194.56,238.933z M194.56,163.84  c-16.94,0-30.72,13.78-30.72,30.72s13.78,30.72,30.72,30.72s30.72-13.78,30.72-30.72S211.5,163.84,194.56,163.84z" fill="#000000" data-original="#000000" style="" class=""/>
<path xmlns="http://www.w3.org/2000/svg" d="M46.92,155.933c-0.626,0-1.273-0.087-1.906-0.273c-3.62-1.053-5.7-4.84-4.647-8.46  c11.127-38.253,36.193-70.593,70.579-91.066c3.239-1.934,7.427-0.867,9.359,2.374c1.927,3.239,0.867,7.433-2.374,9.359  C86.525,86.56,63.631,116.094,53.47,151.014C52.606,153.999,49.881,155.933,46.92,155.933z" fill="#000000" data-original="#000000" style="" class=""/>
<path xmlns="http://www.w3.org/2000/svg" d="M169.013,285.013c2.934,0,5.46,0.333,7.579,1c2.12,0.667,3.907,1.533,5.361,2.599c1.454,1.067,2.62,2.273,3.5,3.62  c0.881,1.347,1.553,2.714,2.021,4.099s0.773,2.72,0.92,4c0.147,1.28,0.22,2.386,0.22,3.319c0,0.399-0.034,0.887-0.101,1.459  c-0.067,0.572-0.3,1.126-0.7,1.661c-0.399,0.534-1.033,0.986-1.9,1.36s-2.099,0.56-3.7,0.56c-0.532,0-1.2-0.034-2-0.101  c-0.8-0.067-1.574-0.241-2.319-0.521s-1.386-0.679-1.92-1.2c-0.534-0.521-0.8-1.246-0.8-2.179c0-1.44-0.087-2.734-0.259-3.879  c-0.172-1.145-0.486-2.12-0.94-2.92c-0.454-0.8-1.08-1.413-1.881-1.84c-0.8-0.427-1.826-0.64-3.081-0.64  c-1.307,0-2.313,0.273-3.021,0.819s-1.22,1.14-1.539,1.78c-0.374,0.773-0.587,1.64-0.64,2.599v25.363  c0.053,1.174,0.266,2.2,0.64,3.081c0.321,0.773,0.833,1.48,1.539,2.12c0.707,0.64,1.713,0.959,3.021,0.959  c1.253,0,2.28-0.259,3.081-0.78c0.8-0.521,1.427-1.22,1.881-2.099c0.454-0.879,0.766-1.893,0.94-3.04  c0.174-1.147,0.259-2.347,0.259-3.599c0-0.399,0.067-0.814,0.2-1.241c0.133-0.427,0.44-0.819,0.92-1.179  c0.48-0.36,1.186-0.66,2.12-0.899c0.934-0.239,2.2-0.36,3.801-0.36s2.833,0.179,3.7,0.539c0.867,0.36,1.5,0.773,1.9,1.241  c0.399,0.468,0.633,0.92,0.7,1.36s0.101,0.727,0.101,0.86c0,2.934-0.493,5.553-1.48,7.859c-0.986,2.306-2.381,4.26-4.18,5.861  s-3.946,2.819-6.439,3.661c-2.493,0.841-5.233,1.26-8.219,1.26c-0.48,0-1.26-0.039-2.34-0.119c-1.08-0.08-2.287-0.294-3.62-0.64  c-1.333-0.346-2.707-0.867-4.12-1.56c-1.413-0.693-2.7-1.661-3.86-2.9c-1.161-1.239-2.113-2.787-2.86-4.64  c-0.748-1.853-1.12-4.113-1.12-6.781v-22.32c0-2.186,0.266-4.12,0.8-5.799s1.234-3.14,2.099-4.379c0.865-1.239,1.86-2.28,2.98-3.12  c1.12-0.84,2.266-1.539,3.441-2.099C162.413,285.933,165.519,285.199,169.013,285.013z" fill="#000000" data-original="#000000" style="" class=""/>
<path xmlns="http://www.w3.org/2000/svg" d="M214.214,285.334c2.427,0,4.687,0.307,6.781,0.92c2.094,0.613,3.92,1.527,5.48,2.739c1.56,1.212,2.787,2.727,3.68,4.54  c0.893,1.812,1.34,3.934,1.34,6.361v24.8c0,2.08-0.227,3.913-0.679,5.501s-1.046,2.959-1.78,4.12  c-0.734,1.161-1.567,2.147-2.5,2.959c-0.934,0.812-1.881,1.473-2.84,1.98c-2.294,1.227-4.893,1.92-7.799,2.08h-13.28  c-1.521,0-2.693-0.259-3.519-0.78c-0.826-0.521-1.427-1.213-1.801-2.08c-0.374-0.867-0.594-1.847-0.66-2.941  c-0.067-1.094-0.101-2.227-0.101-3.4v-37.68c0-1.147,0.034-2.266,0.101-3.36c0.067-1.094,0.287-2.067,0.66-2.92  s0.973-1.539,1.801-2.06s2-0.78,3.519-0.78h11.598V285.334z M208.693,294.694v37.12h5.2c1.147-0.053,2.173-0.321,3.081-0.8  c0.374-0.186,0.748-0.44,1.12-0.759c0.372-0.319,0.707-0.7,1-1.14c0.294-0.44,0.527-0.966,0.7-1.58  c0.172-0.614,0.259-1.319,0.259-2.12v-23.6c0-0.881-0.087-1.661-0.259-2.34c-0.172-0.679-0.406-1.273-0.7-1.78  c-0.294-0.507-0.626-0.934-1-1.28c-0.374-0.346-0.748-0.626-1.12-0.84c-0.906-0.507-1.934-0.8-3.081-0.881L208.693,294.694  L208.693,294.694z" fill="#000000" data-original="#000000" style="" class=""/>
<g xmlns="http://www.w3.org/2000/svg">
</g>
<g xmlns="http://www.w3.org/2000/svg">
</g>
<g xmlns="http://www.w3.org/2000/svg">
</g>
<g xmlns="http://www.w3.org/2000/svg">
</g>
<g xmlns="http://www.w3.org/2000/svg">
</g>
<g xmlns="http://www.w3.org/2000/svg">
</g>
<g xmlns="http://www.w3.org/2000/svg">
</g>
<g xmlns="http://www.w3.org/2000/svg">
</g>
<g xmlns="http://www.w3.org/2000/svg">
</g>
<g xmlns="http://www.w3.org/2000/svg">
</g>
<g xmlns="http://www.w3.org/2000/svg">
</g>
<g xmlns="http://www.w3.org/2000/svg">
</g>
<g xmlns="http://www.w3.org/2000/svg">
</g>
<g xmlns="http://www.w3.org/2000/svg">
</g>
<g xmlns="http://www.w3.org/2000/svg">
</g>
</g></svg>
