<?xml version="1.0"?>
<svg xmlns="http://www.w3.org/2000/svg" xmlns:xlink="http://www.w3.org/1999/xlink" xmlns:svgjs="http://svgjs.com/svgjs" version="1.1" width="512" height="512" x="0" y="0" viewBox="0 0 64 64" style="enable-background:new 0 0 512 512" xml:space="preserve" class=""><g><g xmlns="http://www.w3.org/2000/svg" id="Filled_outline" data-name="Filled outline"><rect x="16" y="9" width="32" height="52" rx="6" ry="6" style="" fill="#7b8c93" data-original="#113142" class=""/><rect x="20" y="17" width="24" height="12" style="" fill="#e2e3e7" data-original="#7d8d9c" class=""/><circle cx="32" cy="37" r="4" style="" fill="#bbc3c6" data-original="#3b73a5" class=""/><circle cx="22" cy="37" r="2" style="" fill="#bbc3c6" data-original="#3b73a5" class=""/><circle cx="42" cy="37" r="2" style="" fill="#bbc3c6" data-original="#3b73a5" class=""/><rect x="28" y="45" width="8" height="4" style="" fill="#bbc3c6" data-original="#98a1a1" class=""/><rect x="28" y="49" width="8" height="4" style="" fill="#e2e3e7" data-original="#e8e8e8" class=""/><rect x="28" y="53" width="8" height="4" style="" fill="#bbc3c6" data-original="#98a1a1" class=""/><polygon points="28 49 20 47 20 43 28 45 28 49" style="" fill="#e2e3e7" data-original="#e8e8e8" class=""/><polygon points="28 53 20 51 20 47 28 49 28 53" style="" fill="#bbc3c6" data-original="#98a1a1" class=""/><polygon points="28 57 20 55 20 51 28 53 28 57" style="" fill="#e2e3e7" data-original="#e8e8e8" class=""/><polygon points="44 47 36 49 36 45 44 43 44 47" style="" fill="#e2e3e7" data-original="#e8e8e8" class=""/><polygon points="44 51 36 53 36 49 44 47 44 51" style="" fill="#bbc3c6" data-original="#98a1a1" class=""/><polygon points="44 55 36 57 36 53 44 51 44 55" style="" fill="#e2e3e7" data-original="#e8e8e8" class=""/><rect x="28" y="12" width="8" height="2" style="" fill="#e2e3e7" data-original="#e8e8e8" class=""/><rect x="38" y="12" width="2" height="2" style="" fill="#e2e3e7" data-original="#e8e8e8" class=""/><rect x="24" y="12" width="2" height="2" style="" fill="#e2e3e7" data-original="#e8e8e8" class=""/><rect x="37" y="3" width="4" height="6" style="" fill="#bbc3c6" data-original="#98a1a1" class=""/><rect x="22.757" y="25" width="8.485" height="2" transform="translate(-10.477 26.707) rotate(-45)" style="" fill="#e2e3e7" data-original="#e8e8e8" class=""/><rect x="29.757" y="25" width="8.485" height="2" transform="translate(-8.426 31.657) rotate(-45)" style="" fill="#e2e3e7" data-original="#e8e8e8" class=""/><path d="M19,30H45V16H19Zm2-12H43V28H33.414l4.293-4.293-1.414-1.414L30.586,28H26.414l4.293-4.293-1.414-1.414L23.586,28H21Z" fill="#000000" data-original="#000000" style="" class=""/><path d="M32,42a5,5,0,1,0-5-5A5.006,5.006,0,0,0,32,42Zm0-8a3,3,0,1,1-3,3A3,3,0,0,1,32,34Z" fill="#000000" data-original="#000000" style="" class=""/><path d="M22,40a3,3,0,1,0-3-3A3,3,0,0,0,22,40Zm0-4a1,1,0,1,1-1,1A1,1,0,0,1,22,36Z" fill="#000000" data-original="#000000" style="" class=""/><path d="M42,34a3,3,0,1,0,3,3A3,3,0,0,0,42,34Zm0,4a1,1,0,1,1,1-1A1,1,0,0,1,42,38Z" fill="#000000" data-original="#000000" style="" class=""/><path d="M43.757,42.03,35.876,44H28.124l-7.881-1.97A1,1,0,0,0,19,43V55a1,1,0,0,0,.757.97l8,2A1,1,0,0,0,28,58h8a1,1,0,0,0,.243-.03l8-2A1,1,0,0,0,45,55V43a1,1,0,0,0-1.243-.97ZM27,55.719l-6-1.5V52.281l6,1.5Zm0-4-6-1.5V48.281l6,1.5Zm0-4-6-1.5V44.281l6,1.5ZM35,56H29V54h6Zm0-4H29V50h6Zm0-4H29V46h6Zm8,6.219-6,1.5V53.781l6-1.5Zm0-4-6,1.5V49.781l6-1.5Zm0-4-6,1.5V45.781l6-1.5Z" fill="#000000" data-original="#000000" style="" class=""/><rect x="28" y="12" width="8" height="2" fill="#000000" data-original="#000000" style="" class=""/><rect x="38" y="12" width="2" height="2" fill="#000000" data-original="#000000" style="" class=""/><rect x="24" y="12" width="2" height="2" fill="#000000" data-original="#000000" style="" class=""/><path d="M36,2V8H22a7.008,7.008,0,0,0-7,7V55a7.008,7.008,0,0,0,7,7H42a7.008,7.008,0,0,0,7-7V15a7.008,7.008,0,0,0-7-7V2Zm2,2h2V8H38Zm9,11V55a5.006,5.006,0,0,1-5,5H22a5.006,5.006,0,0,1-5-5V15a5.006,5.006,0,0,1,5-5H42A5.006,5.006,0,0,1,47,15Z" fill="#000000" data-original="#000000" style="" class=""/></g></g></svg>
