<?xml version="1.0"?>
<svg xmlns="http://www.w3.org/2000/svg" xmlns:xlink="http://www.w3.org/1999/xlink" xmlns:svgjs="http://svgjs.com/svgjs" version="1.1" width="512" height="512" x="0" y="0" viewBox="0 0 64 64" style="enable-background:new 0 0 512 512" xml:space="preserve" class=""><g><g xmlns="http://www.w3.org/2000/svg" id="Layer_22" data-name="Layer 22"><rect fill="#7b8c93" height="40" rx="5" width="60" x="2" y="14" data-original="#a0a8b2" style="" class=""/><path d="m6 38h6v6h-6z" fill="#ffd0ae" data-original="#976947" style="" class=""/><path d="m12 38h6v6h-6z" fill="#f9e2a9" data-original="#f2c351" style="" class=""/><path d="m18 38h6v6h-6z" fill="#88929f" data-original="#88929f" style="" class=""/><path d="m24 38h6v6h-6z" fill="#bcd7af" data-original="#78b75b" style="" class=""/><path d="m30 38h6v6h-6z" fill="#e3ada6" data-original="#e47c6f" style="" class=""/><path d="m36 38h6v6h-6z" fill="#ebd7a0" data-original="#f7d881" style="" class=""/><path d="m42 38h6v6h-6z" fill="#bac5d5" data-original="#4472b0" style="" class=""/><path d="m6 44h6v6h-6z" fill="#bac5d5" data-original="#4472b0" style="" class=""/><path d="m12 44h6v6h-6z" fill="#ebd7a0" data-original="#f7d881" style="" class=""/><path d="m18 44h6v6h-6z" fill="#e3ada6" data-original="#e47c6f" style="" class=""/><path d="m24 44h6v6h-6z" fill="#88929f" data-original="#88929f" style="" class=""/><path d="m30 44h6v6h-6z" fill="#bcd7af" data-original="#78b75b" style="" class=""/><path d="m36 44h6v6h-6z" fill="#f9e2a9" data-original="#f2c351" style="" class=""/><path d="m42 44h6v6h-6z" fill="#ffd0ae" data-original="#976947" style="" class=""/><path d="m12 18h6v20h-6z" fill="#88929f" transform="matrix(-1 0 0 -1 30 56)" data-original="#88929f" style="" class=""/><path d="m6 18h6v20h-6z" fill="#f9e2a9" transform="matrix(-1 0 0 -1 18 56)" data-original="#f2c351" style="" class=""/><path d="m18 18h6v20h-6z" fill="#bcd7af" data-original="#78b75b" style="" class=""/><path d="m24 18h6v20h-6z" fill="#e3ada6" data-original="#e47c6f" style="" class=""/><path d="m30 18h6v20h-6z" fill="#ebd7a0" data-original="#f7d881" style="" class=""/><path d="m36 18h6v20h-6z" fill="#bac5d5" data-original="#4472b0" style="" class=""/><path d="m42 18h6v20h-6z" fill="#ffd0ae" data-original="#976947" style="" class=""/><g fill="#88929f"><path d="m7 54 2 8h4l2-8z" fill="#88929f" data-original="#88929f" style="" class=""/><path d="m49 54 2 8h4l2-8z" fill="#88929f" data-original="#88929f" style="" class=""/><path d="m24 14v-1a3 3 0 0 1 3-3h10a3 3 0 0 1 3 3v1z" fill="#88929f" data-original="#88929f" style="" class=""/></g><circle cx="55" cy="21" fill="#e2e3e7" r="3" data-original="#c7e2fb" style="" class=""/><circle cx="55" cy="31" fill="#e2e3e7" r="3" data-original="#c7e2fb" style="" class=""/><path d="m52 38h6v4h-6z" fill="#e2e3e7" data-original="#ffffff" style="" class=""/><path d="m52 46h6v4h-6z" fill="#e2e3e7" data-original="#ffffff" style="" class=""/><path d="m57 13h-16a4 4 0 0 0 -4-4h-2.59l6.3-6.29-1.42-1.42-7.29 7.3-7.29-7.3-1.42 1.42 6.3 6.29h-2.59a4 4 0 0 0 -4 4h-16a6 6 0 0 0 -6 6v30a6 6 0 0 0 5.2 5.94l1.8 7.3a1 1 0 0 0 1 .76h4a1 1 0 0 0 1-.76l1.78-7.24h32.44l1.78 7.24a1 1 0 0 0 1 .76h4a1 1 0 0 0 1-.76l1.83-7.3a6 6 0 0 0 5.17-5.94v-30a6 6 0 0 0 -6-6zm-30-2h10a2 2 0 0 1 2 2h-14a2 2 0 0 1 2-2zm-14.78 50h-2.44l-1.5-6h5.44zm42 0h-2.44l-1.5-6h5.44zm6.78-12a4 4 0 0 1 -4 4h-50a4 4 0 0 1 -4-4v-30a4 4 0 0 1 4-4h50a4 4 0 0 1 4 4z" fill="#000000" data-original="#000000" style="" class=""/><path d="m47 17h-40a2 2 0 0 0 -2 2v30a2 2 0 0 0 2 2h40a2 2 0 0 0 2-2v-30a2 2 0 0 0 -2-2zm0 20h-4v-18h4zm-34 2h4v4h-4zm-2 4h-4v-4h4zm24-6h-4v-18h4zm2-18h4v18h-4zm-12 20h4v4h-4zm-2 4h-4v-4h4zm8-4h4v4h-4zm-2-2h-4v-18h4zm-6 0h-4v-18h4zm-6 0h-4v-18h4zm0 8v4h-4v-4zm2 0h4v4h-4zm6 0h4v4h-4zm6 0h4v4h-4zm6 0h4v4h-4zm0-2v-4h4v4zm6-4h4v4h-4zm-32-20v18h-4v-18zm-4 26h4v4h-4zm36 4v-4h4v4z" fill="#000000" data-original="#000000" style="" class=""/><path d="m55 17a4 4 0 1 0 4 4 4 4 0 0 0 -4-4zm2 4a2.09 2.09 0 0 1 -.07.51l-2.44-2.44a2.09 2.09 0 0 1 .51-.07 2 2 0 0 1 2 2zm-4 0a2.09 2.09 0 0 1 .07-.51l2.44 2.44a2.09 2.09 0 0 1 -.51.07 2 2 0 0 1 -2-2z" fill="#000000" data-original="#000000" style="" class=""/><path d="m55 27a4 4 0 1 0 4 4 4 4 0 0 0 -4-4zm0 2a2.09 2.09 0 0 1 .51.07l-2.44 2.44a2.09 2.09 0 0 1 -.07-.51 2 2 0 0 1 2-2zm0 4a2.09 2.09 0 0 1 -.51-.07l2.44-2.44a2.09 2.09 0 0 1 .07.51 2 2 0 0 1 -2 2z" fill="#000000" data-original="#000000" style="" class=""/><path d="m58 37h-6a1 1 0 0 0 -1 1v4a1 1 0 0 0 1 1h6a1 1 0 0 0 1-1v-4a1 1 0 0 0 -1-1zm-1 4h-4v-2h4z" fill="#000000" data-original="#000000" style="" class=""/><path d="m58 45h-6a1 1 0 0 0 -1 1v4a1 1 0 0 0 1 1h6a1 1 0 0 0 1-1v-4a1 1 0 0 0 -1-1zm-1 4h-4v-2h4z" fill="#000000" data-original="#000000" style="" class=""/></g></g></svg>
