<?xml version="1.0"?>
<svg xmlns="http://www.w3.org/2000/svg" xmlns:xlink="http://www.w3.org/1999/xlink" xmlns:svgjs="http://svgjs.com/svgjs" version="1.1" width="512" height="512" x="0" y="0" viewBox="0 0 512 512" style="enable-background:new 0 0 512 512" xml:space="preserve" class=""><g><g xmlns="http://www.w3.org/2000/svg"><path d="m16 440.024v-95.779c0-10.623 2.821-21.056 8.173-30.232l39.144-67.105c5.376-9.217 15.243-14.884 25.913-14.884h186.342c7.957 0 15.587 3.161 21.213 8.787l87.215 87.213h52c33.137 0 60 26.863 60 60v52z" fill="#bbc3c6" data-original="#e48c9b" style="" class=""/><path d="m296.79 240.814 87.21 87.21h-32l-87.21-87.21c-5.63-5.63-13.26-8.79-21.22-8.79h32c7.96 0 15.59 3.16 21.22 8.79z" fill="#9fa2a3" data-original="#cc5b6f" style="" class=""/><path d="m496 388.024v52h-32v-52c0-33.14-26.86-60-60-60h32c33.14 0 60 26.86 60 60z" fill="#9fa2a3" data-original="#cc5b6f" style="" class=""/><path d="m504 446.024v20c0 3.31-2.69 6-6 6h-484c-3.31 0-6-2.69-6-6v-20c0-3.31 2.69-6 6-6h484c3.31 0 6 2.69 6 6z" fill="#e2e3e7" data-original="#9da0df" style="" class=""/><path d="m504 446.024v20c0 3.31-2.69 6-6 6h-40c3.31 0 6-2.69 6-6v-20c0-3.31-2.69-6-6-6h40c3.31 0 6 2.69 6 6z" fill="#c4c4c7" data-original="#8286c6" style="" class=""/><circle cx="104" cy="456.024" fill="#7b8c93" r="48" data-original="#595965" style="" class=""/><circle cx="408" cy="456.024" fill="#7b8c93" r="48" data-original="#595965" style="" class=""/><path d="m456 456.024c0 31.358-29.637 54.318-60 46.49 20.7-5.33 36-24.12 36-46.49s-15.3-41.16-36-46.49c30.367-7.829 60 15.135 60 46.49z" fill="#6a7174" data-original="#44454e" style="" class=""/><path d="m152 456.024c0 31.358-29.637 54.318-60 46.49 20.7-5.33 36-24.12 36-46.49s-15.3-41.16-36-46.49c30.367-7.829 60 15.135 60 46.49z" fill="#6a7174" data-original="#44454e" style="" class=""/><path d="m336 328.024h-104v-64h40z" fill="#e2e3e7" data-original="#c8effd" style="" class=""/><path d="m336 328.024h-40l-64-64h40z" fill="#ccced5" data-original="#a0e1fd" style="" class=""/><path d="m200 264.024v64h-136l32-64z" fill="#e2e3e7" data-original="#c8effd" style="" class=""/><path d="m160 264.024h40v64h-40z" fill="#ccced5" data-original="#a0e1fd" style="" class=""/><g fill="#f1cc76"><path d="m38 400.024h-22v-48h22c5.523 0 10 4.477 10 10v28c0 5.522-4.477 10-10 10z" fill="#7b8c93" data-original="#f1cc76" style="" class=""/><path d="m392 152.024c-8.809 0-16-7.136-16-16v-96c0-8.837 7.163-16 16-16 8.809 0 16 7.136 16 16v96c0 8.836-7.163 16-16 16z" fill="#7b8c93" data-original="#f1cc76" style="" class=""/><path d="m376 136.024h-40c-26.51 0-48-21.49-48-48 0-26.436 21.417-48 48-48h40z" fill="#7b8c93" data-original="#f1cc76" style="" class=""/></g><path d="m336 40.024h40v96h-40z" fill="#718085" data-original="#ebb15d" style="" class=""/><path d="m132 88.024h-36v-20c0-33.137 26.863-60 60-60h36v20c0 33.137-26.863 60-60 60z" fill="#bbc3c6" data-original="#79cb9c" style="" class=""/><path d="m192 8.024v20c0 33.14-26.86 60-60 60h-32c33.14 0 60-26.86 60-60v-20z" fill="#a5abad" data-original="#63ac7d" style="" class=""/><path d="m132 88.024h-36v20c0 33.137 26.863 60 60 60h36v-20c0-33.137-26.863-60-60-60z" fill="#bbc3c6" data-original="#79cb9c" style="" class=""/><path d="m192 148.024v20h-32v-20c0-33.14-26.86-60-60-60h32c33.14 0 60 26.86 60 60z" fill="#a5abad" data-original="#63ac7d" style="" class=""/><path d="m496 400.024h-20c-11.034 0-20-8.936-20-20 0-7.594 4.241-14.148 10.32-17.5 5.708-3.163 9.396-2.5 22.75-2.5 7.81 14.739 6.93 25.928 6.93 40z" fill="#7b8c93" data-original="#f1cc76" style="" class=""/><circle cx="104" cy="456.024" fill="#e2e3e7" r="16" data-original="#edebfd" style="" class=""/><circle cx="408" cy="456.024" fill="#e2e3e7" r="16" data-original="#edebfd" style="" class=""/><path d="m104 432.024c-13.234 0-24 10.766-24 24s10.766 24 24 24 24-10.766 24-24-10.766-24-24-24zm0 32c-4.411 0-8-3.589-8-8s3.589-8 8-8 8 3.589 8 8-3.589 8-8 8z" fill="#000000" data-original="#000000" style="" class=""/><path d="m408 432.024c-13.234 0-24 10.766-24 24s10.766 24 24 24 24-10.766 24-24-10.766-24-24-24zm0 32c-4.411 0-8-3.589-8-8s3.589-8 8-8 8 3.589 8 8-3.589 8-8 8z" fill="#000000" data-original="#000000" style="" class=""/><path d="m504 433.394c0-15.132 0-30.28 0-45.37 0-11.187-2.732-21.741-7.539-31.059-.155-.373-.342-.728-.549-1.07-11.487-21.334-34.032-35.871-59.912-35.871h-48.687l-84.87-84.87c-7.177-7.177-16.72-11.13-26.87-11.13h-186.342c-13.463 0-26.04 7.224-32.823 18.853l-19.739 33.839-12.409-9.927c-5.25-4.203-8.26-10.467-8.26-17.185v-101.58c0-28.673 23.327-52 52-52h20v12c0 37.495 30.505 68 68 68h36c4.418 0 8-3.582 8-8v-20c0-20.843-9.435-39.516-24.248-52h104.829c3.895 27.101 27.258 48 55.419 48h33.376c3.302 9.311 12.194 16 22.624 16 13.234 0 24-10.766 24-24h40c4.418 0 8-3.582 8-8s-3.582-8-8-8h-40v-64h40c4.418 0 8-3.582 8-8s-3.582-8-8-8h-40c0-13.234-10.766-24-24-24-10.429 0-19.322 6.689-22.624 16h-33.376c-28.162 0-51.525 20.899-55.419 48h-104.829c14.813-12.484 24.248-31.157 24.248-52v-20c0-4.418-3.582-8-8-8h-36c-37.495 0-68 30.505-68 68v12h-20c-37.495 0-68 30.505-68 68v101.58c0 11.604 5.198 22.42 14.262 29.677l14.257 11.405-11.256 19.295c-6.06 10.388-9.263 22.236-9.263 34.264v89.149c-4.722 2.252-8 7.059-8 12.63v20c0 7.72 6.28 14 14 14h39.414c20.267 42.544 80.848 42.663 101.171 0h202.829c20.267 42.544 80.848 42.663 101.171 0h39.415c7.72 0 14-6.28 14-14v-20c0-5.571-3.278-10.378-8-12.63zm-320-285.37v12h-28c-28.673 0-52-23.327-52-52v-2.919l34.878 29.065c1.496 1.246 3.312 1.854 5.117 1.854 7.46 0 10.858-9.369 5.126-14.146l-31.025-25.854h13.904c28.673 0 52 23.327 52 52zm208-116c4.411 0 8 3.589 8 8v96c0 4.411-3.589 8-8 8s-8-3.589-8-8v-96c0-4.411 3.589-8 8-8zm-56 16h32v80h-32c-22.056 0-40-17.944-40-40s17.944-40 40-40zm-180-32h28v12c0 28.673-23.327 52-52 52h-13.903l31.025-25.854c3.394-2.829 3.853-7.873 1.024-11.268-2.829-3.394-7.873-3.852-11.268-1.024l-34.878 29.065v-2.919c0-28.673 23.327-52 52-52zm327.995 352c3.961 9.471 4.005 16.558 4.005 24h-12c-6.617 0-12-5.383-12-12 0-6.627 5.373-12 12-12zm-413.767-117.086c3.927-6.732 11.208-10.915 19.003-10.915h186.343c5.876 0 11.401 2.289 15.556 6.443l87.213 87.213c1.5 1.5 3.535 2.343 5.657 2.343h52c14.764 0 28.1 6.195 37.574 16.11-6.56.56-12.657 3.38-17.371 8.094-17.455 17.456-5.279 47.796 19.797 47.796h12v24h-29.414c-20.267-42.544-80.848-42.663-101.171 0h-202.829c-20.267-42.544-80.848-42.663-101.171 0h-29.415v-24h14c9.925 0 18-8.075 18-18v-28c0-9.925-8.075-18-18-18h-13.996c.039-9.121 2.483-18.1 7.08-25.98zm-46.228 109.086h14c1.103 0 2 .897 2 2v28c0 1.103-.897 2-2 2h-14zm-8 104v-16h32.581c-.773 5.379-.774 10.611 0 16zm88 32c-22.056 0-40-17.944-40-40s17.944-40 40-40 40 17.944 40 40-17.944 40-40 40zm55.419-32c.773-5.379.774-10.611 0-16h193.161c-.773 5.379-.774 10.611 0 16zm248.581 32c-22.056 0-40-17.944-40-40s17.944-40 40-40 40 17.944 40 40-17.944 40-40 40zm88-32h-32.581c.773-5.379.774-10.611 0-16h32.581z" fill="#000000" data-original="#000000" style="" class=""/><path d="m232 336.024h104c7.102 0 10.693-8.621 5.657-13.657l-64-64c-1.5-1.5-3.535-2.343-5.657-2.343h-40c-4.418 0-8 3.582-8 8v64c0 4.418 3.582 8 8 8zm8-64h28.686l48 48h-76.686z" fill="#000000" data-original="#000000" style="" class=""/><path d="m64 336.024h136c4.418 0 8-3.582 8-8v-64c0-4.418-3.582-8-8-8h-104c-3.03 0-5.8 1.712-7.155 4.422l-32 64c-2.655 5.308 1.209 11.578 7.155 11.578zm128-16h-40v-48h40zm-91.056-48h35.056v48h-59.056z" fill="#000000" data-original="#000000" style="" class=""/><path d="m264 352.024h-16c-4.418 0-8 3.582-8 8s3.582 8 8 8h16c4.418 0 8-3.582 8-8s-3.582-8-8-8z" fill="#000000" data-original="#000000" style="" class=""/></g></g></svg>
