<?xml version="1.0"?>
<svg xmlns="http://www.w3.org/2000/svg" xmlns:xlink="http://www.w3.org/1999/xlink" xmlns:svgjs="http://svgjs.com/svgjs" version="1.1" width="512" height="512" x="0" y="0" viewBox="0 0 512 512" style="enable-background:new 0 0 512 512" xml:space="preserve" class=""><g>
<path xmlns="http://www.w3.org/2000/svg" style="" d="M37.633,7.5c-16.5,0-30,13.5-30,30V474.5c0,16.5,13.5,30,30,30h139.489V7.5H37.633z" fill="#efefef" data-original="#efefef" class=""/>
<path xmlns="http://www.w3.org/2000/svg" style="" d="M36.737,474.5V37.5c0-16.5,13.499-30,30-30H37.633c-16.5,0-30,13.5-30,30V474.5c0,16.5,13.5,30,30,30  h29.104C50.236,504.5,36.737,491,36.737,474.5z" fill="#dddddd" data-original="#dddddd" class=""/>
<path xmlns="http://www.w3.org/2000/svg" style="" d="M474.632,504.5h-297.51c-16.5,0-30-13.5-30-30V37.5c0-16.5,13.5-30,30-30h297.509  c16.5,0,30,13.5,30,30V474.5C504.631,491,491.131,504.5,474.632,504.5z" fill="#7b8c93" data-original="#535454" class=""/>
<path xmlns="http://www.w3.org/2000/svg" style="" d="M173.471,474.5V37.5c0-16.5,13.5-29.999,30-29.999h-26.348c-16.5,0-30,13.5-30,29.999V474.5  c0,16.5,13.5,30,30,30h26.348C186.971,504.5,173.471,491,173.471,474.5z" fill="#656f74" data-original="#444443" class=""/>
<path xmlns="http://www.w3.org/2000/svg" style="" d="M471.22,51.414H180.534c-3.901,0-7.063,3.162-7.063,7.063v374.01c0,3.901,3.162,7.063,7.063,7.063  h290.685c3.901,0,7.063-3.162,7.063-7.063V58.478C478.283,54.576,475.121,51.414,471.22,51.414z" fill="#e2e3e7" data-original="#a4d9f4" class=""/>
<path xmlns="http://www.w3.org/2000/svg" style="" d="M203.471,432.487V58.478c0-3.901,3.162-7.063,7.063-7.063h-30c-3.901,0-7.063,3.162-7.063,7.063  v374.01c0,3.901,3.162,7.063,7.063,7.063h30C206.633,439.551,203.471,436.388,203.471,432.487z" fill="#cfd0d3" data-original="#7cc9e8" class=""/>
<circle xmlns="http://www.w3.org/2000/svg" style="" cx="50.738" cy="51.413" r="14.001" fill="#7b8c93" data-original="#666666" class=""/>
<path xmlns="http://www.w3.org/2000/svg" style="" d="M50.738,51.414c-2.589-4.485-2.403-9.803,0.006-13.99c-2.382-0.003-4.795,0.588-7.006,1.865  c-6.696,3.866-8.991,12.429-5.124,19.125c3.866,6.696,12.429,8.991,19.125,5.124c2.211-1.276,3.93-3.071,5.118-5.135  C58.024,58.397,53.327,55.899,50.738,51.414z" fill="#7b8c93" data-original="#535454" class=""/>
<path xmlns="http://www.w3.org/2000/svg" style="" d="M471.22,51.414H180.534c-3.901,0-7.063,3.162-7.063,7.063v20.111h304.812V58.478  C478.283,54.576,475.121,51.414,471.22,51.414z" fill="#e2e3e7" data-original="#70b5e8" class=""/>
<path xmlns="http://www.w3.org/2000/svg" style="" d="M210.534,51.414h-30c-3.901,0-7.063,3.162-7.063,7.063v20.111h30V58.478  C203.471,54.576,206.633,51.414,210.534,51.414z" fill="#caccd1" data-original="#52a5d8" class=""/>
<path xmlns="http://www.w3.org/2000/svg" style="" d="M239.95,413.071h-20.07c-1.84,0-3.345-1.505-3.345-3.345v-20.07c0-1.84,1.505-3.345,3.345-3.345  h20.07c1.84,0,3.345,1.505,3.345,3.345v20.07C243.294,411.566,241.789,413.071,239.95,413.071z" fill="#7b8c93" data-original="#92b620" class=""/>
<g xmlns="http://www.w3.org/2000/svg">
	<path style="" d="M303.925,413.071h-20.07c-1.84,0-3.345-1.505-3.345-3.345v-20.07c0-1.84,1.505-3.345,3.345-3.345   h20.07c1.84,0,3.345,1.505,3.345,3.345v20.07C307.27,411.566,305.765,413.071,303.925,413.071z" fill="#e2e3e7" data-original="#70b5e8" class=""/>
	<path style="" d="M367.9,413.071h-20.07c-1.84,0-3.345-1.505-3.345-3.345v-20.07c0-1.84,1.505-3.345,3.345-3.345   h20.07c1.84,0,3.345,1.505,3.345,3.345v20.07C371.245,411.566,369.74,413.071,367.9,413.071z" fill="#e2e3e7" data-original="#70b5e8" class=""/>
</g>
<path xmlns="http://www.w3.org/2000/svg" style="" d="M431.876,413.071h-20.07c-1.84,0-3.345-1.505-3.345-3.345v-20.07c0-1.84,1.505-3.345,3.345-3.345  h20.07c1.84,0,3.345,1.505,3.345,3.345v20.07C435.221,411.566,433.715,413.071,431.876,413.071z" fill="#7b8c93" data-original="#ffb70d" class=""/>
<path xmlns="http://www.w3.org/2000/svg" style="" d="M239.95,307.888h-20.07c-1.84,0-3.345-1.505-3.345-3.345v-20.07c0-1.84,1.505-3.345,3.345-3.345  h20.07c1.84,0,3.345,1.505,3.345,3.345v20.07C243.294,306.383,241.789,307.888,239.95,307.888z" fill="#7b8c93" data-original="#898989" class=""/>
<path xmlns="http://www.w3.org/2000/svg" style="" d="M303.925,307.888h-20.07c-1.84,0-3.345-1.505-3.345-3.345v-20.07c0-1.84,1.505-3.345,3.345-3.345  h20.07c1.84,0,3.345,1.505,3.345,3.345v20.07C307.27,306.383,305.765,307.888,303.925,307.888z" fill="#7b8c93" data-original="#f94a46" class=""/>
<path xmlns="http://www.w3.org/2000/svg" style="" d="M367.9,307.888h-20.07c-1.84,0-3.345-1.505-3.345-3.345v-20.07c0-1.84,1.505-3.345,3.345-3.345h20.07  c1.84,0,3.345,1.505,3.345,3.345v20.07C371.245,306.383,369.74,307.888,367.9,307.888z" fill="#e2e3e7" data-original="#70b5e8" class=""/>
<path xmlns="http://www.w3.org/2000/svg" style="" d="M431.876,307.888h-20.07c-1.84,0-3.345-1.505-3.345-3.345v-20.07c0-1.84,1.505-3.345,3.345-3.345  h20.07c1.84,0,3.345,1.505,3.345,3.345v20.07C435.221,306.383,433.715,307.888,431.876,307.888z" fill="#7b8c93" data-original="#ffb70d" class=""/>
<path xmlns="http://www.w3.org/2000/svg" style="" d="M239.95,253.947h-20.07c-1.84,0-3.345-1.505-3.345-3.345v-20.07c0-1.84,1.505-3.345,3.345-3.345  h20.07c1.84,0,3.345,1.505,3.345,3.345v20.07C243.294,252.442,241.789,253.947,239.95,253.947z" fill="#efefef" data-original="#efefef" class=""/>
<path xmlns="http://www.w3.org/2000/svg" style="" d="M303.925,253.947h-20.07c-1.84,0-3.345-1.505-3.345-3.345v-20.07c0-1.84,1.505-3.345,3.345-3.345  h20.07c1.84,0,3.345,1.505,3.345,3.345v20.07C307.27,252.442,305.765,253.947,303.925,253.947z" fill="#7b8c93" data-original="#ffb70d" class=""/>
<path xmlns="http://www.w3.org/2000/svg" style="" d="M367.9,253.947h-20.07c-1.84,0-3.345-1.505-3.345-3.345v-20.07c0-1.84,1.505-3.345,3.345-3.345h20.07  c1.84,0,3.345,1.505,3.345,3.345v20.07C371.245,252.442,369.74,253.947,367.9,253.947z" fill="#e2e3e7" data-original="#70b5e8" class=""/>
<path xmlns="http://www.w3.org/2000/svg" style="" d="M431.876,253.947h-20.07c-1.84,0-3.345-1.505-3.345-3.345v-20.07c0-1.84,1.505-3.345,3.345-3.345  h20.07c1.84,0,3.345,1.505,3.345,3.345v20.07C435.221,252.442,433.715,253.947,431.876,253.947z" fill="#efefef" data-original="#efefef" class=""/>
<path xmlns="http://www.w3.org/2000/svg" style="" d="M239.95,200.007h-20.07c-1.84,0-3.345-1.505-3.345-3.345v-20.07c0-1.84,1.505-3.345,3.345-3.345  h20.07c1.84,0,3.345,1.505,3.345,3.345v20.07C243.294,198.502,241.789,200.007,239.95,200.007z" fill="#7b8c93" data-original="#dda36f" class=""/>
<path xmlns="http://www.w3.org/2000/svg" style="" d="M303.925,200.007h-20.07c-1.84,0-3.345-1.505-3.345-3.345v-20.07c0-1.84,1.505-3.345,3.345-3.345  h20.07c1.84,0,3.345,1.505,3.345,3.345v20.07C307.27,198.502,305.765,200.007,303.925,200.007z" fill="#e2e3e7" data-original="#70b5e8" class=""/>
<path xmlns="http://www.w3.org/2000/svg" style="" d="M367.9,200.007h-20.07c-1.84,0-3.345-1.505-3.345-3.345v-20.07c0-1.84,1.505-3.345,3.345-3.345h20.07  c1.84,0,3.345,1.505,3.345,3.345v20.07C371.245,198.502,369.74,200.007,367.9,200.007z" fill="#7b8c93" data-original="#f9d698" class=""/>
<path xmlns="http://www.w3.org/2000/svg" style="" d="M431.876,200.007h-20.07c-1.84,0-3.345-1.505-3.345-3.345v-20.07c0-1.84,1.505-3.345,3.345-3.345  h20.07c1.84,0,3.345,1.505,3.345,3.345v20.07C435.221,198.502,433.715,200.007,431.876,200.007z" fill="#e2e3e7" data-original="#70b5e8" class=""/>
<path xmlns="http://www.w3.org/2000/svg" style="" d="M239.95,146.067h-20.07c-1.84,0-3.345-1.505-3.345-3.345v-20.07c0-1.84,1.505-3.345,3.345-3.345  h20.07c1.84,0,3.345,1.505,3.345,3.345v20.07C243.294,144.562,241.789,146.067,239.95,146.067z" fill="#7b8c93" data-original="#92b620" class=""/>
<path xmlns="http://www.w3.org/2000/svg" style="" d="M303.925,146.067h-20.07c-1.84,0-3.345-1.505-3.345-3.345v-20.07c0-1.84,1.505-3.345,3.345-3.345  h20.07c1.84,0,3.345,1.505,3.345,3.345v20.07C307.27,144.562,305.765,146.067,303.925,146.067z" fill="#7b8c93" data-original="#f94a46" class=""/>
<path xmlns="http://www.w3.org/2000/svg" style="" d="M367.9,146.067h-20.07c-1.84,0-3.345-1.505-3.345-3.345v-20.07c0-1.84,1.505-3.345,3.345-3.345h20.07  c1.84,0,3.345,1.505,3.345,3.345v20.07C371.245,144.562,369.74,146.067,367.9,146.067z" fill="#7b8c93" data-original="#ffb70d" class=""/>
<path xmlns="http://www.w3.org/2000/svg" style="" d="M431.876,146.067h-20.07c-1.84,0-3.345-1.505-3.345-3.345v-20.07c0-1.84,1.505-3.345,3.345-3.345  h20.07c1.84,0,3.345,1.505,3.345,3.345v20.07C435.221,144.562,433.715,146.067,431.876,146.067z" fill="#efefef" data-original="#efefef" class=""/>
<path xmlns="http://www.w3.org/2000/svg" d="M304.245,472.328c0,11.856,9.646,21.501,21.501,21.501c11.856,0,21.501-9.646,21.501-21.501  c0-11.856-9.646-21.501-21.501-21.501C313.891,450.826,304.245,460.471,304.245,472.328z M332.247,472.328  c0,3.584-2.916,6.5-6.5,6.5s-6.5-2.916-6.5-6.5s2.916-6.5,6.5-6.5C329.33,465.827,332.247,468.743,332.247,472.328z" fill="#000000" data-original="#000000" style="" class=""/>
<path xmlns="http://www.w3.org/2000/svg" d="M72.107,51.414c0-11.856-9.646-21.501-21.501-21.501s-21.501,9.646-21.501,21.501s9.646,21.501,21.501,21.501  S72.107,63.271,72.107,51.414z M44.105,51.414c0-3.584,2.916-6.5,6.5-6.5s6.5,2.916,6.5,6.5s-2.916,6.5-6.5,6.5  S44.105,54.998,44.105,51.414z" fill="#000000" data-original="#000000" style="" class=""/>
<path xmlns="http://www.w3.org/2000/svg" d="M320.436,35.601c0.641,0.64,1.488,1.24,2.44,1.62c0.956,0.402,1.953,0.58,2.87,0.58c0.932,0,1.905-0.182,2.87-0.58  c0.92-0.367,1.833-1.006,2.43-1.62c3.748-3.633,2.574-10.114-2.43-12.231c-3.099-1.21-6.199-0.351-8.181,1.631  c-0.654,0.654-1.215,1.47-1.619,2.43c-0.399,0.995-0.57,1.881-0.57,2.87c0,0.977,0.168,1.867,0.57,2.87  C319.006,33.62,319.728,34.893,320.436,35.601z" fill="#000000" data-original="#000000" style="" class=""/>
<path xmlns="http://www.w3.org/2000/svg" d="M474.5,0C457.775,0,51.584,0,37.501,0C16.823,0,0,16.822,0,37.499v41.089c0,4.143,3.358,7.5,7.5,7.5s7.5-3.357,7.5-7.5  V37.499c0-12.406,10.093-22.498,22.499-22.498h109.507c-4.694,6.206-7.516,14.138-7.516,22.498  c0.019,466.815-0.386,438.66,0.705,444.221c1.118,5.701,3.605,11.085,6.812,15.278H37.501  c-12.407,0.001-22.499-10.093-22.499-22.498V113.591c0-4.143-3.358-7.5-7.5-7.5s-7.5,3.357-7.5,7.5V474.5  c0,20.678,16.822,37.5,37.5,37.5c21.566,0,151.842,0,173.826,0c4.142,0,7.5-3.357,7.5-7.5s-3.358-7.5-7.5-7.5h-34.335  c-12.406,0-22.498-10.094-22.498-22.499v-437c0-12.406,10.093-22.498,22.498-22.498H474.5c12.406,0,22.499,10.093,22.499,22.498v437  c0,12.406-10.094,22.499-22.499,22.499H246.327c-4.142,0-7.5,3.357-7.5,7.5s3.358,7.5,7.5,7.5h228.172  c20.678,0,37.5-16.822,37.5-37.5v-437C512,16.822,495.177,0,474.5,0z" fill="#000000" data-original="#000000" style="" class=""/>
<path xmlns="http://www.w3.org/2000/svg" d="M165.84,58.479c0,8.807,0,354.217,0,374.009c0,8.03,6.533,14.565,14.564,14.565h290.685c8.03,0,14.565-6.533,14.565-14.565  c0-32.299,0-358.119,0-374.009c0-8.03-6.533-14.564-14.565-14.564H180.403C172.372,43.914,165.84,50.447,165.84,58.479z   M180.84,86.089h237.998c4.143,0,7.5-3.357,7.5-7.5s-3.357-7.5-7.5-7.5H180.84V58.915h289.811v12.174H453.84  c-4.143,0-7.5,3.357-7.5,7.5s3.357,7.5,7.5,7.5h16.811V432.05H180.84V86.089z" fill="#000000" data-original="#000000" style="" class=""/>
<path xmlns="http://www.w3.org/2000/svg" d="M239.812,378.81h-20.07c-5.98,0-10.846,4.865-10.846,10.846v20.07c0,5.979,4.865,10.846,10.846,10.846h20.07  c5.98,0,10.846-4.865,10.846-10.846v-20.07C250.658,383.675,245.792,378.81,239.812,378.81z M235.657,405.571h-11.76v-11.76h11.76  V405.571z" fill="#000000" data-original="#000000" style="" class=""/>
<path xmlns="http://www.w3.org/2000/svg" d="M303.788,378.81h-20.07c-5.979,0-10.846,4.865-10.846,10.846v20.07c0,5.979,4.865,10.846,10.846,10.846h20.07  c5.979,0,10.846-4.865,10.846-10.846v-20.07C314.633,383.675,309.767,378.81,303.788,378.81z M299.632,405.571h-11.76v-11.76h11.76  V405.571z" fill="#000000" data-original="#000000" style="" class=""/>
<path xmlns="http://www.w3.org/2000/svg" d="M367.762,378.81h-20.069c-5.98,0-10.847,4.865-10.847,10.846v20.07c0,5.979,4.865,10.846,10.847,10.846h20.069  c5.98,0,10.846-4.865,10.846-10.846v-20.07C378.607,383.675,373.742,378.81,367.762,378.81z M363.607,405.571h-11.76v-11.76h11.76  V405.571z" fill="#000000" data-original="#000000" style="" class=""/>
<path xmlns="http://www.w3.org/2000/svg" d="M431.738,378.81h-20.07c-5.979,0-10.846,4.865-10.846,10.846v20.07c0,5.979,4.865,10.846,10.846,10.846h20.07  c5.979,0,10.846-4.865,10.846-10.846v-20.07C442.583,383.675,437.717,378.81,431.738,378.81z M427.582,405.571h-11.76v-11.76h11.76  V405.571z" fill="#000000" data-original="#000000" style="" class=""/>
<path xmlns="http://www.w3.org/2000/svg" d="M239.812,273.627h-20.07c-5.98,0-10.846,4.865-10.846,10.846v20.07c0,5.979,4.865,10.846,10.846,10.846h20.07  c5.98,0,10.846-4.865,10.846-10.846v-20.07C250.658,278.493,245.792,273.627,239.812,273.627z M235.657,300.387h-11.76v-11.76h11.76  V300.387z" fill="#000000" data-original="#000000" style="" class=""/>
<path xmlns="http://www.w3.org/2000/svg" d="M303.788,273.627h-20.07c-5.979,0-10.846,4.865-10.846,10.846v20.07c0,5.979,4.865,10.846,10.846,10.846h20.07  c5.979,0,10.846-4.865,10.846-10.846v-20.07C314.633,278.493,309.767,273.627,303.788,273.627z M299.632,300.387h-11.76v-11.76  h11.76V300.387z" fill="#000000" data-original="#000000" style="" class=""/>
<path xmlns="http://www.w3.org/2000/svg" d="M367.762,273.627h-20.069c-5.98,0-10.847,4.865-10.847,10.846v20.07c0,5.979,4.865,10.846,10.847,10.846h20.069  c5.98,0,10.846-4.865,10.846-10.846v-20.07C378.607,278.493,373.742,273.627,367.762,273.627z M363.607,300.387h-11.76v-11.76h11.76  V300.387z" fill="#000000" data-original="#000000" style="" class=""/>
<path xmlns="http://www.w3.org/2000/svg" d="M431.738,273.627h-20.07c-5.979,0-10.846,4.865-10.846,10.846v20.07c0,5.979,4.865,10.846,10.846,10.846h20.07  c5.979,0,10.846-4.865,10.846-10.846v-20.07C442.583,278.493,437.717,273.627,431.738,273.627z M427.582,300.387h-11.76v-11.76  h11.76V300.387z" fill="#000000" data-original="#000000" style="" class=""/>
<path xmlns="http://www.w3.org/2000/svg" d="M239.812,219.686h-20.07c-5.98,0-10.846,4.865-10.846,10.846v20.07c0,5.98,4.865,10.846,10.846,10.846h20.07  c5.98,0,10.846-4.865,10.846-10.846v-20.07C250.658,224.552,245.792,219.686,239.812,219.686z M235.657,246.447h-11.76v-11.76h11.76  V246.447z" fill="#000000" data-original="#000000" style="" class=""/>
<path xmlns="http://www.w3.org/2000/svg" d="M303.788,219.686h-20.07c-5.979,0-10.846,4.865-10.846,10.846v20.07c0,5.98,4.865,10.846,10.846,10.846h20.07  c5.979,0,10.846-4.865,10.846-10.846v-20.07C314.633,224.552,309.767,219.686,303.788,219.686z M299.632,246.447h-11.76v-11.76  h11.76V246.447z" fill="#000000" data-original="#000000" style="" class=""/>
<path xmlns="http://www.w3.org/2000/svg" d="M367.762,219.686h-20.069c-5.98,0-10.847,4.865-10.847,10.846v20.07c0,5.98,4.865,10.846,10.847,10.846h20.069  c5.98,0,10.846-4.865,10.846-10.846v-20.07C378.607,224.552,373.742,219.686,367.762,219.686z M363.607,246.447h-11.76v-11.76h11.76  V246.447z" fill="#000000" data-original="#000000" style="" class=""/>
<path xmlns="http://www.w3.org/2000/svg" d="M431.738,219.686h-20.07c-5.979,0-10.846,4.865-10.846,10.846v20.07c0,5.98,4.865,10.846,10.846,10.846h20.07  c5.979,0,10.846-4.865,10.846-10.846v-20.07C442.583,224.552,437.717,219.686,431.738,219.686z M427.582,246.447h-11.76v-11.76  h11.76V246.447z" fill="#000000" data-original="#000000" style="" class=""/>
<path xmlns="http://www.w3.org/2000/svg" d="M239.812,165.746h-20.07c-5.98,0-10.846,4.865-10.846,10.846v20.07c0,5.979,4.865,10.846,10.846,10.846h20.07  c5.98,0,10.846-4.865,10.846-10.846v-20.07C250.658,170.612,245.792,165.746,239.812,165.746z M235.657,192.507h-11.76v-11.76h11.76  V192.507z" fill="#000000" data-original="#000000" style="" class=""/>
<path xmlns="http://www.w3.org/2000/svg" d="M303.788,165.746h-20.07c-5.979,0-10.846,4.865-10.846,10.846v20.07c0,5.979,4.865,10.846,10.846,10.846h20.07  c5.979,0,10.846-4.865,10.846-10.846v-20.07C314.633,170.612,309.767,165.746,303.788,165.746z M299.632,192.507h-11.76v-11.76  h11.76V192.507z" fill="#000000" data-original="#000000" style="" class=""/>
<path xmlns="http://www.w3.org/2000/svg" d="M367.762,165.746h-20.069c-5.98,0-10.847,4.865-10.847,10.846v20.07c0,5.979,4.865,10.846,10.847,10.846h20.069  c5.98,0,10.846-4.865,10.846-10.846v-20.07C378.607,170.612,373.742,165.746,367.762,165.746z M363.607,192.507h-11.76v-11.76h11.76  V192.507z" fill="#000000" data-original="#000000" style="" class=""/>
<path xmlns="http://www.w3.org/2000/svg" d="M431.738,165.746h-20.07c-5.979,0-10.846,4.865-10.846,10.846v20.07c0,5.979,4.865,10.846,10.846,10.846h20.07  c5.979,0,10.846-4.865,10.846-10.846v-20.07C442.583,170.612,437.717,165.746,431.738,165.746z M427.582,192.507h-11.76v-11.76  h11.76V192.507z" fill="#000000" data-original="#000000" style="" class=""/>
<path xmlns="http://www.w3.org/2000/svg" d="M239.812,111.806h-20.07c-5.98,0-10.846,4.865-10.846,10.846v20.07c0,5.979,4.865,10.846,10.846,10.846h20.07  c5.98,0,10.846-4.865,10.846-10.846v-20.07C250.658,116.671,245.792,111.806,239.812,111.806z M235.657,138.566h-11.76v-11.76h11.76  V138.566z" fill="#000000" data-original="#000000" style="" class=""/>
<path xmlns="http://www.w3.org/2000/svg" d="M303.788,111.806h-20.07c-5.979,0-10.846,4.865-10.846,10.846v20.07c0,5.979,4.865,10.846,10.846,10.846h20.07  c5.979,0,10.846-4.865,10.846-10.846v-20.07C314.633,116.671,309.767,111.806,303.788,111.806z M299.632,138.566h-11.76v-11.76  h11.76V138.566z" fill="#000000" data-original="#000000" style="" class=""/>
<path xmlns="http://www.w3.org/2000/svg" d="M367.762,111.806h-20.069c-5.98,0-10.847,4.865-10.847,10.846v20.07c0,5.979,4.865,10.846,10.847,10.846h20.069  c5.98,0,10.846-4.865,10.846-10.846v-20.07C378.607,116.671,373.742,111.806,367.762,111.806z M363.607,138.566h-11.76v-11.76h11.76  V138.566z" fill="#000000" data-original="#000000" style="" class=""/>
<path xmlns="http://www.w3.org/2000/svg" d="M431.738,111.806h-20.07c-5.979,0-10.846,4.865-10.846,10.846v20.07c0,5.979,4.865,10.846,10.846,10.846h20.07  c5.979,0,10.846-4.865,10.846-10.846v-20.07C442.583,116.671,437.717,111.806,431.738,111.806z M427.582,138.566h-11.76v-11.76  h11.76V138.566z" fill="#000000" data-original="#000000" style="" class=""/>
<g xmlns="http://www.w3.org/2000/svg">
</g>
<g xmlns="http://www.w3.org/2000/svg">
</g>
<g xmlns="http://www.w3.org/2000/svg">
</g>
<g xmlns="http://www.w3.org/2000/svg">
</g>
<g xmlns="http://www.w3.org/2000/svg">
</g>
<g xmlns="http://www.w3.org/2000/svg">
</g>
<g xmlns="http://www.w3.org/2000/svg">
</g>
<g xmlns="http://www.w3.org/2000/svg">
</g>
<g xmlns="http://www.w3.org/2000/svg">
</g>
<g xmlns="http://www.w3.org/2000/svg">
</g>
<g xmlns="http://www.w3.org/2000/svg">
</g>
<g xmlns="http://www.w3.org/2000/svg">
</g>
<g xmlns="http://www.w3.org/2000/svg">
</g>
<g xmlns="http://www.w3.org/2000/svg">
</g>
<g xmlns="http://www.w3.org/2000/svg">
</g>
</g></svg>
