<?xml version="1.0"?>
<svg xmlns="http://www.w3.org/2000/svg" xmlns:xlink="http://www.w3.org/1999/xlink" xmlns:svgjs="http://svgjs.com/svgjs" version="1.1" width="512" height="512" x="0" y="0" viewBox="0 0 512 512.09497" style="enable-background:new 0 0 512 512" xml:space="preserve" class=""><g><path xmlns="http://www.w3.org/2000/svg" d="m453.339844 229.300781c-5.804688-.9375-11.605469-2.046875-17.324219-3.074219-2.816406-.511718-5.632813-.9375-8.449219-1.363281-16.382812-2.730469-32.765625-4.949219-49.234375-6.828125-13.230469-1.535156-26.457031-2.898437-39.683593-4.007812-5.886719-.515625-12.03125-1.027344-18.175782-1.109375-15.785156-1.460938-31.585937 2.675781-44.628906 11.6875-14.761719 11.605469-19.625 30.636719-20.734375 48.554687l-19.796875 13.738282-4.863281 3.328124-16.042969-9.554687-12.546875-7.511719c1.628906-46.632812 19.085937-91.324218 49.496094-126.71875 42.066406-48.554687 96.765625-77.996094 152.660156-106.324218l22.273437-11.265626c.082032-.085937.167969-.085937.253907-.171874l.085937.683593zm0 0" fill="#bbc3c6" data-original="#fec108" style="" class=""/><path xmlns="http://www.w3.org/2000/svg" d="m427.738281 226.3125c-5.546875-.9375-11.007812-2.046875-16.554687-3.070312-10.921875-1.964844-21.84375-3.753907-32.851563-5.207032-19.96875-2.898437-39.964843-5.234375-59.992187-6.996094-7.792969-.84375-15.628906-1.214843-23.464844-1.109374-15.789062-1.460938-31.585938 2.675781-44.628906 11.691406-14.765625 11.605468-19.628906 30.632812-20.738282 48.554687l-15.101562 10.496094-12.546875-7.511719c1.628906-46.632812 19.085937-91.324218 49.496094-126.71875 42.066406-48.554687 96.765625-77.996094 152.660156-106.324218l23.550781 184.746093zm0 0" fill="#e2e3e7" data-original="#ffdc00" style="" class=""/><path xmlns="http://www.w3.org/2000/svg" d="m440.796875 8.585938.207031-.027344c9.347656-1.234375 17.921875 5.339844 19.15625 14.683594l26.117188 197.8125c1.234375 9.34375-5.339844 17.921874-14.6875 19.15625l-.207032.027343c-9.347656 1.230469-17.921874-5.34375-19.15625-14.6875l-26.117187-197.8125c-1.234375-9.34375 5.339844-17.917969 14.6875-19.152343zm0 0" fill="#a1a9ab" data-original="#f57c00" style="" class=""/><path xmlns="http://www.w3.org/2000/svg" d="m290.179688 315.828125v-25.601563c-.027344-9.414062-7.652344-17.039062-17.066407-17.066406h-93.867187c-9.414063.027344-17.039063 7.652344-17.066406 17.066406v76.800782h128" fill="#a1a9ab" data-original="#f57c00" style="" class=""/><path xmlns="http://www.w3.org/2000/svg" d="m264.582031 315.828125v-25.601563c0-9.386718-5.632812-17.066406-12.515625-17.066406h-68.835937c-6.882813 0-12.515625 7.679688-12.515625 17.066406v76.800782h93.867187" fill="#bbc3c6" data-original="#ff9801" style="" class=""/><path xmlns="http://www.w3.org/2000/svg" d="m118.851562 239.957031c2.414063 13.394531-1.707031 27.140625-11.09375 36.996094-9.203124 10.230469-14.15625 23.585937-13.84375 37.34375v18.597656h-34.132812v-18.871093c-.382812-14.402344-5.875-28.199219-15.5-38.917969-11.589844-13.695313-13.378906-33.179688-4.472656-48.753907 8.90625-15.578124 26.605468-23.917968 44.285156-20.875 17.683594 3.046876 31.574219 16.824219 34.757812 34.480469zm0 0" fill="#e2e3e7" data-original="#ffdc00" style="" class=""/><path xmlns="http://www.w3.org/2000/svg" d="m59.78125 315.828125h34.132812c4.714844 0 8.535157 3.820313 8.535157 8.535156v42.664063h-51.203125v-42.664063c0-4.714843 3.820312-8.535156 8.535156-8.535156zm0 0" fill="#7f8e94" data-original="#7f8e94" style="" class=""/><path xmlns="http://www.w3.org/2000/svg" d="m51.246094 452.363281h102.402344v34.132813c0 9.425781-7.640626 17.066406-17.066407 17.066406h-68.269531c-9.425781 0-17.066406-7.640625-17.066406-17.066406zm0 0" fill="#667378" data-original="#37474f" style="" class=""/><path xmlns="http://www.w3.org/2000/svg" d="m358.449219 452.363281h102.398437v34.132813c0 9.425781-7.640625 17.066406-17.066406 17.066406h-68.265625c-9.425781 0-17.066406-7.640625-17.066406-17.066406zm0 0" fill="#667378" data-original="#37474f" style="" class=""/><path xmlns="http://www.w3.org/2000/svg" d="m25.648438 349.960938h460.800781c9.425781 0 17.066406 7.640624 17.066406 17.066406v85.335937c0 9.425781-7.640625 17.066407-17.066406 17.066407h-460.800781c-9.425782 0-17.066407-7.640626-17.066407-17.066407v-85.335937c0-9.425782 7.640625-17.066406 17.066407-17.066406zm0 0" fill="#6d797e" data-original="#6d4122" style="" class=""/><path xmlns="http://www.w3.org/2000/svg" d="m34.179688 349.960938h426.667968c9.425782 0 17.066406 7.640624 17.066406 17.066406v85.335937c0 9.425781-7.640624 17.066407-17.066406 17.066407h-426.667968c-9.425782 0-17.066407-7.640626-17.066407-17.066407v-85.335937c0-9.425782 7.640625-17.066406 17.066407-17.066406zm0 0" fill="#7b8c93" data-original="#91562d" style="" class=""/><path xmlns="http://www.w3.org/2000/svg" d="m392.582031 409.695312c0 9.425782-7.640625 17.066407-17.066406 17.066407s-17.066406-7.640625-17.066406-17.066407c0-9.425781 7.640625-17.066406 17.066406-17.066406s17.066406 7.640625 17.066406 17.066406zm0 0" fill="#bbc3c6" data-original="#00bcd4" style="" class=""/><path xmlns="http://www.w3.org/2000/svg" d="m460.847656 409.695312c0 9.425782-7.640625 17.066407-17.066406 17.066407s-17.066406-7.640625-17.066406-17.066407c0-9.425781 7.640625-17.066406 17.066406-17.066406s17.066406 7.640625 17.066406 17.066406zm0 0" fill="#bbc3c6" data-original="#ff9801" style="" class=""/><path xmlns="http://www.w3.org/2000/svg" d="m213.378906 315.828125h247.46875c9.425782 0 17.066406 7.640625 17.066406 17.066406s-7.640624 17.066407-17.066406 17.066407h-247.46875c-9.421875 0-17.066406-7.640626-17.066406-17.066407s7.644531-17.066406 17.066406-17.066406zm0 0" fill="#667378" data-original="#37474f" style="" class=""/><path xmlns="http://www.w3.org/2000/svg" d="m213.378906 315.828125h213.335938c9.425781 0 17.066406 7.640625 17.066406 17.066406s-7.640625 17.066407-17.066406 17.066407h-213.335938c-9.421875 0-17.066406-7.640626-17.066406-17.066407s7.644531-17.066406 17.066406-17.066406zm0 0" fill="#7b8c93" data-original="#607d8b" style="" class=""/><path xmlns="http://www.w3.org/2000/svg" d="m102.449219 409.695312c0 14.136719-11.464844 25.601563-25.601563 25.601563-14.136718 0-25.601562-11.464844-25.601562-25.601563 0-14.140624 11.464844-25.601562 25.601562-25.601562 14.136719 0 25.601563 11.460938 25.601563 25.601562zm0 0" fill="#e2e3e7" data-original="#ffeb3a" style="" class=""/><path xmlns="http://www.w3.org/2000/svg" d="m196.3125 409.695312c0 14.136719-11.460938 25.601563-25.597656 25.601563-14.140625 0-25.601563-11.464844-25.601563-25.601563 0-14.140624 11.460938-25.601562 25.601563-25.601562 14.136718 0 25.597656 11.460938 25.597656 25.601562zm0 0" fill="#e2e3e7" data-original="#ffeb3a" style="" class=""/><path xmlns="http://www.w3.org/2000/svg" d="m486.449219 477.960938h-460.800781c-14.132813-.015626-25.585938-11.46875-25.601563-25.597657v-85.335937c.015625-14.132813 11.46875-25.582032 25.601563-25.597656h460.800781c14.128906.015624 25.582031 11.464843 25.597656 25.597656v85.335937c-.015625 14.128907-11.46875 25.582031-25.597656 25.597657zm-460.800781-119.464844c-4.710938.003906-8.527344 3.820312-8.535157 8.53125v85.335937c.007813 4.707031 3.824219 8.527344 8.535157 8.53125h460.800781c4.710937-.003906 8.527343-3.820312 8.53125-8.53125v-85.335937c-.003907-4.710938-3.820313-8.527344-8.53125-8.53125zm0 0" fill="#000000" data-original="#000000" style="" class=""/><path xmlns="http://www.w3.org/2000/svg" d="m136.582031 512.09375h-68.269531c-14.128906-.015625-25.582031-11.464844-25.597656-25.597656v-17.066406c0-4.714844 3.820312-8.535157 8.53125-8.535157h102.402344c4.710937 0 8.53125 3.820313 8.53125 8.535157v17.066406c-.015626 14.132812-11.46875 25.582031-25.597657 25.597656zm-76.800781-34.132812v8.535156c.003906 4.710937 3.824219 8.527344 8.53125 8.53125h68.269531c4.710938-.003906 8.527344-3.820313 8.53125-8.53125v-8.535156zm0 0" fill="#000000" data-original="#000000" style="" class=""/><path xmlns="http://www.w3.org/2000/svg" d="m443.78125 512.09375h-68.265625c-14.132813-.015625-25.585937-11.464844-25.601563-25.597656v-17.066406c0-4.714844 3.820313-8.535157 8.535157-8.535157h102.398437c4.710938 0 8.53125 3.820313 8.53125 8.535157v17.066406c-.011718 14.132812-11.464844 25.582031-25.597656 25.597656zm-76.800781-34.132812v8.535156c.007812 4.710937 3.824219 8.527344 8.535156 8.53125h68.265625c4.710938-.003906 8.527344-3.820313 8.53125-8.53125v-8.535156zm0 0" fill="#000000" data-original="#000000" style="" class=""/><path xmlns="http://www.w3.org/2000/svg" d="m93.914062 324.363281h-34.132812c-4.714844 0-8.535156-3.820312-8.535156-8.535156v-1.804687c-.4375-12.371094-5.210938-24.199219-13.480469-33.414063-17.816406-21.039063-15.773437-52.40625 4.617187-70.964844 20.386719-18.554687 51.808594-17.640625 71.082032 2.070313 19.277344 19.714844 19.488281 51.144531.480468 71.113281-7.71875 8.632813-11.835937 19.894531-11.496093 31.472656v1.527344c0 4.714844-3.820313 8.535156-8.535157 8.535156zm-25.980468-17.066406h17.789062c1.089844-13.503906 6.667969-26.25 15.84375-36.214844 7.527344-7.902343 10.824219-18.925781 8.875-29.660156-2.570312-14.117187-13.695312-25.113281-27.835937-27.53125s-28.285157 4.265625-35.398438 16.722656-5.679687 28.035157 3.585938 38.984375c9.335937 10.582032 15.304687 23.707032 17.140625 37.699219zm0 0" fill="#000000" data-original="#000000" style="" class=""/><path xmlns="http://www.w3.org/2000/svg" d="m102.449219 358.496094h-51.203125c-4.710938 0-8.53125-3.820313-8.53125-8.535156v-25.597657c.007812-9.421875 7.644531-17.058593 17.066406-17.066406h34.132812c9.421876.007813 17.058594 7.644531 17.066407 17.066406v25.597657c0 4.714843-3.820313 8.535156-8.53125 8.535156zm-42.667969-17.066406h34.132812v-17.066407h-34.144531zm0 0" fill="#000000" data-original="#000000" style="" class=""/><path xmlns="http://www.w3.org/2000/svg" d="m59.78125 264.628906c-4.714844 0-8.535156-3.820312-8.535156-8.535156 0-27 16.746094-34.132812 25.601562-34.132812 4.710938-.058594 8.578125 3.71875 8.636719 8.429687.058594 4.714844-3.714844 8.582031-8.429687 8.636719-1.539063.113281-8.742188 1.484375-8.742188 17.066406 0 4.714844-3.820312 8.535156-8.53125 8.535156zm0 0" fill="#000000" data-original="#000000" style="" class=""/><path xmlns="http://www.w3.org/2000/svg" d="m460.847656 358.496094h-247.46875c-14.136718 0-25.597656-11.460938-25.597656-25.601563 0-14.136719 11.460938-25.597656 25.597656-25.597656h247.46875c14.136719 0 25.601563 11.460937 25.601563 25.597656 0 14.140625-11.464844 25.601563-25.601563 25.601563zm-247.46875-34.132813c-4.710937 0-8.53125 3.820313-8.53125 8.53125 0 4.714844 3.820313 8.535157 8.53125 8.535157h247.46875c4.710938 0 8.53125-3.820313 8.53125-8.535157 0-4.710937-3.820312-8.53125-8.53125-8.53125zm0 0" fill="#000000" data-original="#000000" style="" class=""/><path xmlns="http://www.w3.org/2000/svg" d="m290.179688 358.496094h-128c-4.710938 0-8.53125-3.820313-8.53125-8.535156v-59.734376c.015624-14.128906 11.46875-25.582031 25.597656-25.597656h93.867187c14.132813.015625 25.585938 11.46875 25.601563 25.597656v25.601563c0 4.714844-3.820313 8.535156-8.535156 8.535156-4.710938 0-8.53125-3.820312-8.53125-8.535156v-25.601563c-.007813-4.707031-3.824219-8.527343-8.535157-8.53125h-93.867187c-4.707032.003907-8.527344 3.824219-8.53125 8.53125v51.203126h119.464844c4.714843 0 8.535156 3.820312 8.535156 8.53125 0 4.714843-3.820313 8.535156-8.535156 8.535156zm0 0" fill="#000000" data-original="#000000" style="" class=""/><path xmlns="http://www.w3.org/2000/svg" d="m469.074219 248.90625c-12.816407-.042969-23.625-9.554688-25.300781-22.257812l-26.125-197.808594c-1.71875-14 8.164062-26.769532 22.148437-28.617188 13.984375-1.84375 26.84375 7.921875 28.816406 21.886719l26.125 197.8125c.890625 6.730469-.929687 13.539063-5.0625 18.929687-4.128906 5.386719-10.230469 8.914063-16.964843 9.800782l-.097657.011718-.210937.027344c-1.101563.144532-2.214844.21875-3.328125.214844zm-25.835938-231.976562c-.375-.003907-.75.019531-1.125.070312-2.28125.261719-4.359375 1.421875-5.78125 3.226562-1.417969 1.804688-2.054687 4.101563-1.765625 6.378907l26.125 197.808593c.296875 2.246094 1.472656 4.28125 3.269532 5.65625 1.796874 1.375 4.066406 1.984376 6.3125 1.683594l.207031-.023437c4.671875-.625 7.953125-4.910157 7.339843-9.578125l-26.125-197.8125c-.566406-4.238282-4.179687-7.40625-8.457031-7.410156zm0 0" fill="#000000" data-original="#000000" style="" class=""/><path xmlns="http://www.w3.org/2000/svg" d="m255.117188 281.695312c-.167969 0-.339844-.003906-.515626-.015624-2.257812-.136719-4.371093-1.160157-5.875-2.855469-1.5-1.691407-2.269531-3.914063-2.132812-6.171875 1.492188-25.039063 9.558594-43.453125 23.960938-54.722656 21.125-16.53125 48.710937-14.160157 68.855468-12.425782 35.816406 3.070313 67.886719 7.121094 98.039063 12.359375l6.507812 1.144531c3.597657.636719 7.191407 1.269532 10.789063 1.875 4.648437.78125 7.789062 5.179688 7.011718 9.828126-.777343 4.648437-5.175781 7.785156-9.824218 7.007812-3.660156-.613281-7.300782-1.257812-10.953125-1.90625l-6.449219-1.136719c-29.667969-5.152343-61.257812-9.136719-96.578125-12.175781-22.464844-1.914062-42.242187-2.589844-56.878906 8.867188-10.390625 8.125-16.257813 22.359374-17.449219 42.300781-.265625 4.503906-3.996094 8.023437-8.507812 8.027343zm0 0" fill="#000000" data-original="#000000" style="" class=""/><path xmlns="http://www.w3.org/2000/svg" d="m201.867188 281.695312c-.144532 0-.285157-.003906-.433594-.011718-2.257813-.113282-4.382813-1.117188-5.902344-2.796875-1.515625-1.675781-2.304688-3.890625-2.191406-6.148438 1.824218-48.519531 19.996094-94.996093 51.566406-131.886719 46.128906-53.234374 107.667969-84.320312 167.183594-114.378906l9.90625-5.015625c3.746094-2.378906 8.6875-1.492187 11.371094 2.039063 2.683593 3.53125 2.214843 8.527344-1.078126 11.5-.363281.324218-.75.621094-1.15625.886718-.316406.214844-.644531.410157-.984374.585938l-10.367188 5.242188c-60.710938 30.660156-118.054688 59.621093-161.976562 110.316406-29.246094 33.902344-45.984376 76.808594-47.425782 121.5625-.222656 4.535156-3.964844 8.101562-8.511718 8.105468zm0 0" fill="#000000" data-original="#000000" style="" class=""/><path xmlns="http://www.w3.org/2000/svg" d="m384.046875 281.695312h-128c-4.710937 0-8.53125-3.820312-8.53125-8.535156 0-4.710937 3.820313-8.53125 8.53125-8.53125h128c4.714844 0 8.535156 3.820313 8.535156 8.53125 0 4.714844-3.820312 8.535156-8.535156 8.535156zm0 0" fill="#000000" data-original="#000000" style="" class=""/><path xmlns="http://www.w3.org/2000/svg" d="m401.113281 298.761719c-10.351562 0-19.6875-6.238281-23.652343-15.804688-3.960938-9.566406-1.769532-20.574219 5.550781-27.898437 7.320312-7.320313 18.332031-9.511719 27.898437-5.546875 9.566406 3.960937 15.804688 13.296875 15.804688 23.648437-.015625 14.132813-11.46875 25.585938-25.601563 25.601563zm0-34.132813c-4.710937 0-8.53125 3.820313-8.53125 8.53125 0 4.714844 3.820313 8.535156 8.53125 8.535156 4.714844 0 8.535157-3.820312 8.535157-8.535156-.007813-4.707031-3.824219-8.527344-8.535157-8.53125zm0 0" fill="#000000" data-original="#000000" style="" class=""/><path xmlns="http://www.w3.org/2000/svg" d="m401.113281 324.363281c-4.710937 0-8.53125-3.820312-8.53125-8.535156v-25.601563c0-4.710937 3.820313-8.53125 8.53125-8.53125 4.714844 0 8.535157 3.820313 8.535157 8.53125v25.601563c0 4.714844-3.820313 8.535156-8.535157 8.535156zm0 0" fill="#000000" data-original="#000000" style="" class=""/><path xmlns="http://www.w3.org/2000/svg" d="m264.582031 187.828125c26.367188-39.59375 124.160157-94.464844 167.167969-117.332031" fill="#000000" data-original="#000000" style="" class=""/><path xmlns="http://www.w3.org/2000/svg" d="m264.574219 196.363281c-3.148438-.003906-6.035157-1.738281-7.519531-4.507812-1.484376-2.773438-1.320313-6.140625.421874-8.757813 26.550782-39.871094 118.070313-92.378906 170.261719-120.136718 2.691407-1.433594 5.941407-1.320313 8.527344.292968 2.589844 1.617188 4.117187 4.488282 4.011719 7.535156-.105469 3.046876-1.828125 5.804688-4.519532 7.238282-40.871093 21.738281-138.691406 76.410156-164.074218 114.53125-1.582032 2.378906-4.253906 3.808594-7.109375 3.804687zm0 0" fill="#000000" data-original="#000000" style="" class=""/><path xmlns="http://www.w3.org/2000/svg" d="m448.140625 203.1875c-.378906 0-.757813-.023438-1.136719-.074219l-115.285156-15.359375c-3.050781-.367187-5.667969-2.347656-6.851562-5.183594-1.183594-2.839843-.753907-6.09375 1.132812-8.519531 1.882812-2.429687 4.929688-3.65625 7.96875-3.214843l115.285156 15.359374c4.453125.597657 7.679688 4.539063 7.386719 9.019532-.292969 4.480468-4.011719 7.964844-8.5 7.972656zm0 0" fill="#000000" data-original="#000000" style="" class=""/><path xmlns="http://www.w3.org/2000/svg" d="m76.847656 443.828125c-18.851562 0-34.132812-15.28125-34.132812-34.132813 0-18.851562 15.28125-34.132812 34.132812-34.132812 18.851563 0 34.132813 15.28125 34.132813 34.132812-.019531 18.84375-15.289063 34.113282-34.132813 34.132813zm0-51.199219c-9.425781 0-17.066406 7.640625-17.066406 17.066406 0 9.425782 7.640625 17.066407 17.066406 17.066407 9.425782 0 17.066406-7.640625 17.066406-17.066407-.007812-9.421874-7.644531-17.058593-17.066406-17.066406zm0 0" fill="#000000" data-original="#000000" style="" class=""/><path xmlns="http://www.w3.org/2000/svg" d="m170.714844 443.84375c-17.597656.03125-32.351563-13.292969-34.101563-30.800781-1.753906-17.511719 10.0625-33.496094 27.320313-36.953125 17.253906-3.457032 34.316406 6.742187 39.445312 23.574218 5.128906 16.835938-3.351562 34.8125-19.601562 41.5625-4.140625 1.726563-8.578125 2.613282-13.0625 2.617188zm0-51.222656c-8.796875-.011719-16.167969 6.648437-17.042969 15.402344-.871094 8.753906 5.039063 16.742187 13.664063 18.46875 8.625 1.726562 17.152343-3.371094 19.714843-11.789063 2.5625-8.414063-1.675781-17.402344-9.800781-20.773437-2.070312-.863282-4.292969-1.308594-6.535156-1.308594zm0 0" fill="#000000" data-original="#000000" style="" class=""/><path xmlns="http://www.w3.org/2000/svg" d="m79.492188 392.800781c-4.113282.015625-7.652344-2.902343-8.425782-6.9375-.773437-4.039062 1.441406-8.058593 5.269532-9.558593l12.820312-6.414063c2.726562-1.363281 5.976562-1.167969 8.519531.511719 2.542969 1.679687 4 4.589844 3.816407 7.632812-.183594 3.042969-1.976563 5.757813-4.703126 7.121094l-13.480468 6.742188c-1.1875.59375-2.492188.898437-3.816406.902343zm0 0" fill="#000000" data-original="#000000" style="" class=""/><path xmlns="http://www.w3.org/2000/svg" d="m60.726562 450.398438c-3.960937.003906-7.402343-2.714844-8.3125-6.566407-.914062-3.855469.945313-7.828125 4.488282-9.597656l13.480468-6.742187c2.8125-1.410157 6.171876-1.160157 8.742188.644531 2.574219 1.808593 3.949219 4.878906 3.582031 8.003906-.371093 3.121094-2.421875 5.789063-5.347656 6.945313l-12.820313 6.414062c-1.183593.589844-2.488281.898438-3.8125.898438zm0 0" fill="#000000" data-original="#000000" style="" class=""/><path xmlns="http://www.w3.org/2000/svg" d="m60.71875 398.4375c-2.742188-.003906-5.316406-1.324219-6.917969-3.550781-1.605469-2.226563-2.042969-5.085938-1.175781-7.6875l4.777344-14.335938c1.492187-4.472656 6.324218-6.886719 10.796875-5.394531 4.46875 1.488281 6.886719 6.324219 5.394531 10.792969l-4.777344 14.335937c-1.164062 3.484375-4.421875 5.835938-8.097656 5.839844zm0 0" fill="#000000" data-original="#000000" style="" class=""/><path xmlns="http://www.w3.org/2000/svg" d="m88.195312 452.367188c-2.742187-.003907-5.316406-1.324219-6.917968-3.550782-1.605469-2.226562-2.042969-5.085937-1.175782-7.6875l4.777344-14.335937c1.492188-4.472657 6.324219-6.886719 10.796875-5.398438 4.46875 1.492188 6.886719 6.328125 5.394531 10.796875l-4.777343 14.335938c-1.160157 3.488281-4.421875 5.839844-8.097657 5.839844zm0 0" fill="#000000" data-original="#000000" style="" class=""/><path xmlns="http://www.w3.org/2000/svg" d="m51.417969 415.625c-3.519531.011719-6.683594-2.144531-7.960938-5.421875l-6.414062-12.820313c-2.109375-4.214843-.398438-9.34375 3.816406-11.449218 4.214844-2.109375 9.34375-.398438 11.449219 3.816406l6.742187 13.480469c1.320313 2.652343 1.179688 5.796875-.371093 8.320312-1.554688 2.519531-4.300782 4.0625-7.261719 4.074219zm0 0" fill="#000000" data-original="#000000" style="" class=""/><path xmlns="http://www.w3.org/2000/svg" d="m109.027344 434.355469c-3.234375.003906-6.195313-1.820313-7.640625-4.714844l-6.742188-13.484375c-1.414062-2.8125-1.167969-6.171875.640625-8.75 1.808594-2.574219 4.882813-3.949219 8.007813-3.578125s5.792969 2.429687 6.945312 5.359375l6.414063 12.820312c1.320312 2.644532 1.179687 5.785157-.371094 8.300782-1.554688 2.511718-4.296875 4.046875-7.253906 4.046875zm0 0" fill="#000000" data-original="#000000" style="" class=""/><path xmlns="http://www.w3.org/2000/svg" d="m57.050781 434.363281c-.917969-.003906-1.832031-.152343-2.699219-.441406l-14.335937-4.78125c-4.472656-1.488281-6.886719-6.324219-5.398437-10.796875 1.492187-4.46875 6.324218-6.886719 10.796874-5.394531l14.335938 4.777343c3.976562 1.320313 6.410156 5.332032 5.738281 9.46875-.671875 4.136719-4.246093 7.171876-8.4375 7.167969zm0 0" fill="#000000" data-original="#000000" style="" class=""/><path xmlns="http://www.w3.org/2000/svg" d="m110.980469 406.878906c-.917969 0-1.828125-.148437-2.699219-.441406l-14.335938-4.777344c-4.472656-1.492187-6.886718-6.324218-5.398437-10.796875 1.492187-4.472656 6.328125-6.886719 10.796875-5.394531l14.335938 4.777344c3.980468 1.320312 6.410156 5.332031 5.738281 9.46875-.671875 4.132812-4.246094 7.171875-8.4375 7.164062zm0 0" fill="#000000" data-original="#000000" style="" class=""/><path xmlns="http://www.w3.org/2000/svg" d="m147.058594 408.4375c-1.117188-.003906-2.226563-.226562-3.261719-.65625l-7.882813-3.265625c-4.355468-1.804687-6.421874-6.796875-4.617187-11.148437 1.804687-4.355469 6.796875-6.421876 11.152344-4.617188l7.882812 3.265625c3.765625 1.554687 5.90625 5.558594 5.109375 9.554687-.792968 3.996094-4.304687 6.871094-8.382812 6.867188zm0 0" fill="#000000" data-original="#000000" style="" class=""/><path xmlns="http://www.w3.org/2000/svg" d="m202.242188 431.292969c-1.117188 0-2.226563-.222657-3.261719-.652344l-7.882813-3.265625c-4.355468-1.804688-6.421875-6.796875-4.617187-11.152344 1.804687-4.351562 6.796875-6.417968 11.148437-4.617187l7.886719 3.269531c3.765625 1.554688 5.90625 5.554688 5.109375 9.554688-.796875 3.996093-4.304688 6.871093-8.382812 6.863281zm0 0" fill="#000000" data-original="#000000" style="" class=""/><path xmlns="http://www.w3.org/2000/svg" d="m180.507812 394.582031c-2.851562-.003906-5.507812-1.429687-7.089843-3.800781-1.582031-2.367188-1.878907-5.371094-.792969-8.003906l3.269531-7.882813c1.800781-4.351562 6.792969-6.421875 11.148438-4.617187 4.355469 1.804687 6.421875 6.796875 4.617187 11.152344l-3.265625 7.882812c-1.320312 3.191406-4.433593 5.269531-7.886719 5.269531zm0 0" fill="#000000" data-original="#000000" style="" class=""/><path xmlns="http://www.w3.org/2000/svg" d="m157.648438 449.765625c-2.847657-.003906-5.507813-1.429687-7.089844-3.800781-1.582032-2.367188-1.878906-5.371094-.789063-8.003906l3.265625-7.882813c1.804688-4.355469 6.796875-6.421875 11.148438-4.617187 4.355468 1.804687 6.421875 6.796874 4.617187 11.152343l-3.265625 7.882813c-1.320312 3.191406-4.433594 5.269531-7.886718 5.269531zm0 0" fill="#000000" data-original="#000000" style="" class=""/><path xmlns="http://www.w3.org/2000/svg" d="m160.921875 394.582031c-3.453125 0-6.566406-2.078125-7.886719-5.269531l-3.265625-7.882812c-1.804687-4.355469.261719-9.347657 4.617188-11.152344 4.351562-1.804688 9.34375.265625 11.148437 4.617187l3.265625 7.882813c1.089844 2.632812.792969 5.636718-.789062 8.003906-1.582031 2.371094-4.242188 3.796875-7.089844 3.800781zm0 0" fill="#000000" data-original="#000000" style="" class=""/><path xmlns="http://www.w3.org/2000/svg" d="m183.78125 449.765625c-3.453125 0-6.566406-2.078125-7.886719-5.269531l-3.269531-7.882813c-1.800781-4.355469.265625-9.347656 4.617188-11.152343 4.355468-1.804688 9.347656.261718 11.152343 4.617187l3.265625 7.882813c1.085938 2.632812.792969 5.636718-.789062 8.003906-1.582032 2.371094-4.242188 3.796875-7.089844 3.800781zm0 0" fill="#000000" data-original="#000000" style="" class=""/><path xmlns="http://www.w3.org/2000/svg" d="m194.367188 408.4375c-4.074219.003906-7.585938-2.871094-8.382813-6.867188-.792969-3.996093 1.347656-8 5.113281-9.554687l7.882813-3.265625c4.355469-1.804688 9.347656.261719 11.152343 4.617188 1.800782 4.351562-.265624 9.34375-4.617187 11.148437l-7.886719 3.265625c-1.03125.429688-2.140625.652344-3.261718.65625zm0 0" fill="#000000" data-original="#000000" style="" class=""/><path xmlns="http://www.w3.org/2000/svg" d="m139.183594 431.292969c-4.074219.007812-7.585938-2.867188-8.382813-6.863281-.792969-4 1.347657-8 5.113281-9.554688l7.882813-3.269531c4.355469-1.800781 9.347656.265625 11.152344 4.617187 1.800781 4.355469-.265625 9.347656-4.617188 11.152344l-7.882812 3.265625c-1.035157.429687-2.144531.652344-3.265625.652344zm0 0" fill="#000000" data-original="#000000" style="" class=""/><path xmlns="http://www.w3.org/2000/svg" d="m375.515625 435.296875c-14.140625 0-25.601563-11.464844-25.601563-25.601563 0-14.140624 11.460938-25.601562 25.601563-25.601562 14.136719 0 25.597656 11.460938 25.597656 25.601562-.015625 14.132813-11.46875 25.585938-25.597656 25.601563zm0-34.136719c-4.714844 0-8.535156 3.820313-8.535156 8.535156 0 4.710938 3.820312 8.53125 8.535156 8.53125 4.710937 0 8.53125-3.820312 8.53125-8.53125-.003906-4.710937-3.824219-8.527343-8.53125-8.535156zm0 0" fill="#000000" data-original="#000000" style="" class=""/><path xmlns="http://www.w3.org/2000/svg" d="m443.78125 435.296875c-14.140625 0-25.601562-11.464844-25.601562-25.601563 0-14.140624 11.460937-25.601562 25.601562-25.601562 14.136719 0 25.597656 11.460938 25.597656 25.601562-.011718 14.132813-11.464844 25.585938-25.597656 25.601563zm0-34.136719c-4.714844 0-8.535156 3.820313-8.535156 8.535156 0 4.710938 3.820312 8.53125 8.535156 8.53125 4.710938 0 8.53125-3.820312 8.53125-8.53125-.003906-4.710937-3.820312-8.53125-8.53125-8.535156zm0 0" fill="#000000" data-original="#000000" style="" class=""/><path xmlns="http://www.w3.org/2000/svg" d="m76.847656 213.429688c-4.714844 0-8.535156-3.820313-8.535156-8.535157v-8.53125c0-4.714843 3.820312-8.535156 8.535156-8.535156 4.710938 0 8.53125 3.820313 8.53125 8.535156v8.53125c0 4.714844-3.820312 8.535157-8.53125 8.535157zm0 0" fill="#000000" data-original="#000000" style="" class=""/><path xmlns="http://www.w3.org/2000/svg" d="m256.046875 409.695312c0 4.710938-3.820313 8.53125-8.53125 8.53125-4.714844 0-8.535156-3.820312-8.535156-8.53125 0-4.714843 3.820312-8.535156 8.535156-8.535156 4.710937 0 8.53125 3.820313 8.53125 8.535156zm0 0" fill="#000000" data-original="#000000" style="" class=""/><path xmlns="http://www.w3.org/2000/svg" d="m290.179688 409.695312c0 4.710938-3.820313 8.53125-8.53125 8.53125-4.714844 0-8.535157-3.820312-8.535157-8.53125 0-4.714843 3.820313-8.535156 8.535157-8.535156 4.710937 0 8.53125 3.820313 8.53125 8.535156zm0 0" fill="#000000" data-original="#000000" style="" class=""/><path xmlns="http://www.w3.org/2000/svg" d="m324.3125 409.695312c0 4.710938-3.820312 8.53125-8.53125 8.53125-4.714844 0-8.535156-3.820312-8.535156-8.53125 0-4.714843 3.820312-8.535156 8.535156-8.535156 4.710938 0 8.53125 3.820313 8.53125 8.535156zm0 0" fill="#000000" data-original="#000000" style="" class=""/></g></svg>
