<svg id="Capa_1" enable-background="new 0 0 512.521 512.521" height="512" viewBox="0 0 512.521 512.521" width="512" xmlns="http://www.w3.org/2000/svg"><g><g><path d="m429.634 505.02h-346.748c-3.575 0-6.473-2.898-6.473-6.473v-431.28h359.695v431.279c-.001 3.576-2.899 6.474-6.474 6.474z" fill="#f9f3f1"/></g><g><path d="m436.107 67.267h-359.694v-53.293c0-3.575 2.898-6.473 6.473-6.473h346.748c3.575 0 6.473 2.898 6.473 6.473z" fill="#fd9468"/></g><g><path d="m436.11 67.268v431.28c0 3.57-2.9 6.47-6.48 6.47h-20c3.58 0 6.48-2.9 6.48-6.47v-431.28z" fill="#efe2dd"/></g><g><path d="m436.11 13.978v53.29h-20v-53.29c0-3.58-2.9-6.48-6.48-6.48h20c3.58 0 6.48 2.9 6.48 6.48z" fill="#fe7d43"/></g><g><path d="m391.855 349.38h-271.19c-2.215 0-4.011-1.796-4.011-4.011v-44.52c0-2.215 1.796-4.011 4.011-4.011h271.19c2.215 0 4.011 1.796 4.011 4.011v44.52c.001 2.215-1.795 4.011-4.011 4.011z" fill="#b0e7c9"/></g><g><path d="m395.87 300.848v44.52c0 2.22-1.8 4.01-4.01 4.01h-20c2.21 0 4.01-1.79 4.01-4.01v-44.52c0-2.21-1.8-4.01-4.01-4.01h20c2.21 0 4.01 1.8 4.01 4.01z" fill="#91deb6"/></g><g><g><circle cx="190.487" cy="181.407" fill="#8ac9fe" r="73.834"/></g><g><path d="m264.321 181.404c0 40.781-33.058 73.839-73.83 73.839-12.037 0-23.402-2.882-33.443-7.991 5.334 1.217 10.873 1.861 16.574 1.861 40.772 0 73.83-33.058 73.83-73.83 0-28.744-16.422-53.65-40.387-65.838 32.789 7.517 57.256 36.888 57.256 71.959z" fill="#60b7ff"/></g><g><path d="m232.755 241.956c-11.971 8.368-26.554 13.287-42.271 13.287s-30.281-4.909-42.252-13.287c.486-4.079 1.23-7.854 2.164-11.361 10.99-41.07 69.197-41.07 80.177 0 .943 3.507 1.677 7.282 2.182 11.361z" fill="#fef0ae"/></g><g><path d="m216.873 250.383c.125-.081.242-.161.367-.251-.555-4.439-1.351-8.546-2.371-12.359-5.969-22.292-24.708-33.461-43.493-33.505 21.523-10.811 51.618-2.031 59.198 26.328.94 3.508 1.673 7.276 2.184 11.356-4.896 3.42-10.221 6.266-15.885 8.431z" fill="#fee97d"/></g><g><circle cx="190.487" cy="176.844" fill="#fef0ae" r="31.021"/></g><g><path d="m221.508 176.84c0 17.137-13.889 31.026-31.017 31.026-9.531 0-18.059-4.296-23.751-11.061 2.721.779 5.602 1.199 8.573 1.199 17.137 0 31.026-13.889 31.026-31.026 0-7.598-2.738-14.56-7.276-19.956 12.959 3.722 22.445 15.661 22.445 29.818z" fill="#fee97d"/></g><g><path d="m429.635 0h-40.291c-4.142 0-7.5 3.357-7.5 7.5s3.358 7.5 7.5 7.5h39.264v44.768h-344.695v-44.768h270.866c4.142 0 7.5-3.357 7.5-7.5s-3.358-7.5-7.5-7.5h-271.893c-7.705 0-13.973 6.269-13.973 13.974v484.573c0 7.705 6.268 13.974 13.973 13.974h346.749c7.705 0 13.973-6.269 13.973-13.974v-484.573c0-7.705-6.269-13.974-13.973-13.974zm-1.027 497.521h-344.695v-422.753h344.695z"/><circle cx="120.762" cy="37.384" r="7.5"/><circle cx="159.477" cy="37.384" r="7.5"/><circle cx="198.192" cy="37.384" r="7.5"/><path d="m298.136 114.887h97.73c4.142 0 7.5-3.357 7.5-7.5s-3.358-7.5-7.5-7.5h-97.73c-4.142 0-7.5 3.357-7.5 7.5s3.358 7.5 7.5 7.5z"/><path d="m395.867 136.851h-41.088c-4.142 0-7.5 3.357-7.5 7.5s3.358 7.5 7.5 7.5h41.088c4.142 0 7.5-3.357 7.5-7.5s-3.358-7.5-7.5-7.5z"/><path d="m298.136 151.851h21.867c4.142 0 7.5-3.357 7.5-7.5s-3.358-7.5-7.5-7.5h-21.867c-4.142 0-7.5 3.357-7.5 7.5s3.358 7.5 7.5 7.5z"/><path d="m298.136 188.814h97.73c4.142 0 7.5-3.357 7.5-7.5s-3.358-7.5-7.5-7.5h-97.73c-4.142 0-7.5 3.357-7.5 7.5s3.358 7.5 7.5 7.5z"/><path d="m395.867 210.778h-25.749c-4.142 0-7.5 3.357-7.5 7.5s3.358 7.5 7.5 7.5h25.749c4.142 0 7.5-3.357 7.5-7.5s-3.358-7.5-7.5-7.5z"/><path d="m298.136 225.778h36.979c4.142 0 7.5-3.357 7.5-7.5s-3.358-7.5-7.5-7.5h-36.979c-4.142 0-7.5 3.357-7.5 7.5s3.358 7.5 7.5 7.5z"/><path d="m298.136 262.742h97.73c4.142 0 7.5-3.357 7.5-7.5s-3.358-7.5-7.5-7.5h-97.73c-4.142 0-7.5 3.357-7.5 7.5s3.358 7.5 7.5 7.5z"/><path d="m120.665 356.88h271.19c6.348 0 11.512-5.164 11.512-11.511v-44.521c0-6.348-5.164-11.512-11.512-11.512h-189.788c-4.142 0-7.5 3.357-7.5 7.5s3.358 7.5 7.5 7.5h186.3v37.543h-264.213v-37.543h43.519c4.142 0 7.5-3.357 7.5-7.5s-3.358-7.5-7.5-7.5h-47.007c-6.347 0-11.511 5.164-11.511 11.512v44.521c-.001 6.347 5.163 11.511 11.51 11.511z"/><path d="m395.867 383.473h-193.8c-4.142 0-7.5 3.357-7.5 7.5s3.358 7.5 7.5 7.5h193.8c4.142 0 7.5-3.357 7.5-7.5s-3.358-7.5-7.5-7.5z"/><path d="m116.654 398.473h50.086c4.142 0 7.5-3.357 7.5-7.5s-3.358-7.5-7.5-7.5h-50.086c-4.142 0-7.5 3.357-7.5 7.5s3.357 7.5 7.5 7.5z"/><path d="m395.867 420.437h-45.401c-4.142 0-7.5 3.357-7.5 7.5s3.358 7.5 7.5 7.5h45.401c4.142 0 7.5-3.357 7.5-7.5s-3.358-7.5-7.5-7.5z"/><path d="m116.654 435.437h198.512c4.142 0 7.5-3.357 7.5-7.5s-3.358-7.5-7.5-7.5h-198.512c-4.142 0-7.5 3.357-7.5 7.5s3.357 7.5 7.5 7.5z"/><path d="m395.867 457.4h-139.607c-4.142 0-7.5 3.357-7.5 7.5s3.358 7.5 7.5 7.5h139.607c4.142 0 7.5-3.357 7.5-7.5s-3.358-7.5-7.5-7.5z"/><path d="m116.654 472.4h104.594c4.142 0 7.5-3.357 7.5-7.5s-3.358-7.5-7.5-7.5h-104.594c-4.142 0-7.5 3.357-7.5 7.5s3.357 7.5 7.5 7.5z"/><path d="m190.487 262.74c44.848 0 81.333-36.486 81.333-81.333 0-44.848-36.486-81.334-81.333-81.334s-81.333 36.486-81.333 81.334c0 44.847 36.485 81.333 81.333 81.333zm0-15c-12.471 0-24.145-3.464-34.121-9.473.353-1.952.779-3.87 1.275-5.734 2.807-10.489 9.049-17.161 16.117-20.995 5.062 2.451 10.738 3.827 16.729 3.827 5.987 0 11.658-1.373 16.717-3.821 7.07 3.835 13.32 10.5 16.126 20.998.491 1.826.918 3.741 1.279 5.723-9.976 6.011-21.651 9.475-34.122 9.475zm-23.52-70.896c0-12.97 10.551-23.521 23.521-23.521s23.521 10.551 23.521 23.521-10.551 23.521-23.521 23.521-23.521-10.552-23.521-23.521zm23.52-61.771c36.577 0 66.333 29.757 66.333 66.334 0 18.151-7.334 34.618-19.188 46.607-3.095-11.033-9.374-20.068-17.771-26.291 5.698-6.718 9.146-15.401 9.146-24.88 0-21.24-17.28-38.521-38.521-38.521s-38.521 17.28-38.521 38.521c0 9.477 3.446 18.159 9.142 24.876-8.393 6.224-14.671 15.26-17.771 26.291-11.852-11.989-19.184-28.454-19.184-46.603.002-36.577 29.758-66.334 66.335-66.334z"/></g></g></g></svg>