<?xml version="1.0"?>
<svg xmlns="http://www.w3.org/2000/svg" xmlns:xlink="http://www.w3.org/1999/xlink" xmlns:svgjs="http://svgjs.com/svgjs" version="1.1" width="512" height="512" x="0" y="0" viewBox="0 0 64 64" style="enable-background:new 0 0 512 512" xml:space="preserve" class=""><g><g xmlns="http://www.w3.org/2000/svg"><g><g><path d="m58 62h-52c-2.209 0-4-1.791-4-4v-18c0-2.209 1.791-4 4-4h52c2.209 0 4 1.791 4 4v18c0 2.209-1.791 4-4 4z" fill="#e2e3e7" data-original="#ffeaa7" style="" class=""/></g><g><path d="m8 50h40v12h-40z" fill="#e2e3e7" data-original="#e6e9ed" style="" class=""/></g><g><path d="m16 50v6h-2-2v-6z" fill="#969faa" data-original="#969faa" style="" class=""/></g><g><path d="m24 50v6h-2-2v-6z" fill="#969faa" data-original="#969faa" style="" class=""/></g><g><path d="m36 50v6h-2-2v-6z" fill="#969faa" data-original="#969faa" style="" class=""/></g><g><path d="m44 50v6h-2-2v-6h2z" fill="#969faa" data-original="#969faa" style="" class=""/></g><g><circle cx="8" cy="42" fill="#7b8c93" r="2" data-original="#5cd6b3" style="" class=""/></g><g><circle cx="16" cy="42" fill="#7b8c93" r="2" data-original="#5cd6b3" style="" class=""/></g><g><circle cx="56" cy="56" fill="#7b8c93" r="2" data-original="#ff826e" style="" class=""/></g><g><circle cx="56" cy="48" fill="#7b8c93" r="2" data-original="#ff826e" style="" class=""/></g><g><path d="m36 41v4c0 .55-.45 1-1 1h-12c-.55 0-1-.45-1-1v-4c0-.55.45-1 1-1h12c.55 0 1 .45 1 1z" fill="#bbc3c6" data-original="#69d6f4" style="" class=""/></g><g><path d="m40 14v2 4c0 3.31-2.69 6-6 6h-4c-3.31 0-6-2.69-6-6v-4-2h6 4z" fill="#969faa" data-original="#969faa" style="" class=""/></g><g><path d="m38.24 3.76c-1.08-1.09-2.58-1.76-4.24-1.76h-4c-1.66 0-3.16.67-4.24 1.76-1.09 1.08-1.76 2.58-1.76 4.24v6h16v-6c0-1.66-.67-3.16-1.76-4.24z" fill="#7b8c93" data-original="#aab2bd" style="" class=""/></g><g><circle cx="32" cy="20" fill="#e2e3e7" r="2" data-original="#fcd770" style="" class=""/></g></g><g><path d="m32 23c1.654 0 3-1.346 3-3s-1.346-3-3-3-3 1.346-3 3 1.346 3 3 3zm0-4c.552 0 1 .449 1 1s-.448 1-1 1-1-.449-1-1 .448-1 1-1z" fill="#000000" data-original="#000000" style="" class=""/><path d="m58 35h-25v-4h1c6.065 0 11-4.935 11-11v-5h-4v-7c0-3.86-3.141-7-7-7h-4c-3.859 0-7 3.14-7 7v7h-4v5c0 6.065 4.935 11 11 11h1v4h-25c-2.757 0-5 2.243-5 5v18c0 2.757 2.243 5 5 5h52c2.757 0 5-2.243 5-5v-18c0-2.757-2.243-5-5-5zm-30.414-28-1.586 1.586-.962-.962c.066-.872.337-1.687.795-2.377zm11.414 6h-2.586l2.586-2.586zm-8.586 0 1.586-1.586 1.586 1.586zm4.586-1.414-1.586-1.586 1.586-1.586 1.586 1.586zm3-3-1.586-1.586 1.753-1.753c.458.691.729 1.505.795 2.377zm-3-3-1.586-1.586.962-.962c.872.066 1.686.337 2.377.795zm-3-.172 1.586 1.586-1.586 1.586-1.586-1.586zm-1.414 4.586-1.586 1.586-1.586-1.586 1.586-1.586zm-3 3h-2.586v-2.586zm-2.586 2h14v5c0 2.757-2.243 5-5 5h-4c-2.757 0-5-2.243-5-5zm6.586-12-2.586 2.586-1.753-1.753c.791-.524 1.736-.833 2.753-.833zm-10.586 17v-3h2v3c0 3.86 3.141 7 7 7h4c3.859 0 7-3.14 7-7v-3h2v3c0 4.962-4.037 9-9 9h-4c-4.963 0-9-4.038-9-9zm26 41h-4v-4h2v-6h2zm-4-6h-2v-4h2zm-2 2v4h-6v-4h2v-6h2v6zm-6-2h-2v-4h2zm-2 2v4h-4v-10h2v6zm-6 4h-4v-4h2v-6h2zm-4-6h-2v-4h2zm-2 2v4h-6v-4h2v-6h2v6zm-6-2h-2v-4h2zm-2 2v4h-4v-10h2v6zm48 1c0 1.654-1.346 3-3 3h-9v-12h-42v12h-1c-1.654 0-3-1.346-3-3v-18c0-1.654 1.346-3 3-3h52c1.654 0 3 1.346 3 3z" fill="#000000" data-original="#000000" style="" class=""/><path d="m8 39c-1.654 0-3 1.346-3 3s1.346 3 3 3 3-1.346 3-3-1.346-3-3-3zm0 4c-.552 0-1-.449-1-1s.448-1 1-1 1 .449 1 1-.448 1-1 1z" fill="#000000" data-original="#000000" style="" class=""/><path d="m16 39c-1.654 0-3 1.346-3 3s1.346 3 3 3 3-1.346 3-3-1.346-3-3-3zm0 4c-.552 0-1-.449-1-1s.448-1 1-1 1 .449 1 1-.448 1-1 1z" fill="#000000" data-original="#000000" style="" class=""/><path d="m56 53c-1.654 0-3 1.346-3 3s1.346 3 3 3 3-1.346 3-3-1.346-3-3-3zm0 4c-.552 0-1-.449-1-1s.448-1 1-1 1 .449 1 1-.448 1-1 1z" fill="#000000" data-original="#000000" style="" class=""/><path d="m56 45c-1.654 0-3 1.346-3 3s1.346 3 3 3 3-1.346 3-3-1.346-3-3-3zm0 4c-.552 0-1-.449-1-1s.448-1 1-1 1 .449 1 1-.448 1-1 1z" fill="#000000" data-original="#000000" style="" class=""/><path d="m35 39h-12c-1.103 0-2 .897-2 2v4c0 1.103.897 2 2 2h12c1.103 0 2-.897 2-2v-4c0-1.103-.897-2-2-2zm-12 6v-4h12l.001 4z" fill="#000000" data-original="#000000" style="" class=""/><path d="m43 39h-2v2h-2v2h2v4h2v-4h2v-2h-2z" fill="#000000" data-original="#000000" style="" class=""/><path d="m53 45v-2h-2v-4h-2v4h-2v2h2v2h2v-2z" fill="#000000" data-original="#000000" style="" class=""/><path d="m47 10h2v6h-2z" fill="#000000" data-original="#000000" style="" class=""/><path d="m51 8h2v10h-2z" fill="#000000" data-original="#000000" style="" class=""/><path d="m55 6h2v14h-2z" fill="#000000" data-original="#000000" style="" class=""/><path d="m15 10h2v6h-2z" fill="#000000" data-original="#000000" style="" class=""/><path d="m11 8h2v10h-2z" fill="#000000" data-original="#000000" style="" class=""/><path d="m7 6h2v14h-2z" fill="#000000" data-original="#000000" style="" class=""/></g></g></g></svg>
