<?xml version="1.0"?>
<svg xmlns="http://www.w3.org/2000/svg" xmlns:xlink="http://www.w3.org/1999/xlink" xmlns:svgjs="http://svgjs.com/svgjs" version="1.1" width="512" height="512" x="0" y="0" viewBox="0 0 511.999 511.999" style="enable-background:new 0 0 512 512" xml:space="preserve" class=""><g>
<g xmlns="http://www.w3.org/2000/svg">
	<path style="" d="M23.955,169.352c-3.478,3.478-6.86,7.013-10.148,10.605c-8.711,9.516-8.288,24.241,0.834,33.363l0,0   c9.714,9.714,25.61,9.458,34.883-0.677c2.799-3.059,5.677-6.069,8.637-9.029C167.14,94.605,344.816,94.592,453.808,203.585   c2.97,2.97,5.857,5.989,8.665,9.058c9.273,10.135,25.168,10.389,34.882,0.676l0,0c9.123-9.123,9.545-23.848,0.833-33.365   c-3.297-3.601-6.688-7.145-10.176-10.632C359.508,40.848,152.445,40.861,23.955,169.352z" fill="#e2e3e7" data-original="#6cb6de" class=""/>
	<path style="" d="M91.476,238.771c-3.252,3.289-6.383,6.65-9.396,10.08c-8.402,9.566-7.873,24.034,1.13,33.037l0,0   c9.908,9.908,26.092,9.328,35.344-1.196c3.284-3.735,6.744-7.365,10.383-10.881c70.606-68.22,183.531-68.216,254.132,0.009   c3.635,3.513,7.093,7.14,10.373,10.871c9.252,10.524,25.436,11.105,35.345,1.197l0.001-0.001   c9.043-9.043,9.477-23.545,1.031-33.148c-4.503-5.119-9.272-10.087-14.305-14.884C324.525,147.122,179.855,149.381,91.476,238.771z   " fill="#e2e3e7" data-original="#6cb6de" class=""/>
	<path style="" d="M162.708,304.502c-4.701,4.529-9,9.319-12.895,14.322c-7.446,9.564-6.438,23.226,2.132,31.797   l0.003,0.003c10.344,10.344,27.287,9.112,36.327-2.39c2.101-2.674,4.383-5.25,6.847-7.714   c33.544-33.546,88.207-33.546,121.751-0.001c2.464,2.464,4.746,5.041,6.848,7.715c9.04,11.501,25.983,12.733,36.327,2.39   l0.003-0.003c8.571-8.571,9.578-22.233,2.132-31.798c-3.898-5.006-8.199-9.798-12.903-14.33   C297.416,254.536,214.568,254.539,162.708,304.502z" fill="#e2e3e7" data-original="#6cb6de" class=""/>
	<circle style="" cx="255.997" cy="401.392" r="37.675" fill="#e2e3e7" data-original="#6cb6de" class=""/>
</g>
<g xmlns="http://www.w3.org/2000/svg">
	<path style="" d="M360.053,322.625l-0.003,0.003c-10.344,10.344-27.287,9.112-36.327-2.39   c-2.102-2.674-4.384-5.251-6.848-7.715c-33.544-33.545-88.208-33.545-121.751,0.001c-2.464,2.464-4.746,5.04-6.847,7.714   c-9.04,11.502-25.983,12.733-36.327,2.39l-0.003-0.003c-0.975-0.975-1.838-2.022-2.616-3.115   c-6.888,9.523-5.755,22.74,2.616,31.111l0.003,0.003c10.344,10.344,27.287,9.112,36.327-2.39c2.102-2.674,4.383-5.25,6.847-7.714   c33.544-33.546,88.207-33.546,121.751-0.001c2.464,2.464,4.747,5.041,6.848,7.715c9.04,11.501,25.983,12.733,36.327,2.39   l0.003-0.003c8.371-8.371,9.504-21.588,2.616-31.111C361.891,320.603,361.027,321.651,360.053,322.625z" fill="#bbc3c6" data-original="#61a3c7" class=""/>
	<path style="" d="M282.639,400.039c-14.713,14.713-38.567,14.713-53.282,0c-3.727-3.727-6.505-8.04-8.344-12.642   c-5.422,13.569-2.644,29.651,8.344,40.639c14.713,14.713,38.567,14.713,53.282,0c10.988-10.988,13.766-27.07,8.344-40.639   C289.144,391.999,286.366,396.312,282.639,400.039z" fill="#bbc3c6" data-original="#61a3c7" class=""/>
	<path style="" d="M428.787,253.89L428.787,253.89c-9.909,9.909-26.093,9.328-35.346-1.196   c-3.28-3.731-6.738-7.358-10.373-10.871c-70.601-68.225-183.527-68.229-254.132-0.009c-3.639,3.516-7.1,7.146-10.383,10.881   c-9.252,10.523-25.436,11.104-35.344,1.196l0,0c-0.985-0.985-1.849-2.045-2.631-3.147c-6.796,9.501-5.796,22.716,2.631,31.143l0,0   c9.908,9.908,26.092,9.327,35.344-1.196c3.284-3.735,6.744-7.365,10.383-10.881c70.606-68.22,183.531-68.216,254.132,0.009   c3.635,3.513,7.093,7.14,10.373,10.871c9.252,10.524,25.436,11.105,35.345,1.197l0.001-0.001c8.43-8.43,9.371-21.601,2.618-31.128   C430.628,251.855,429.768,252.91,428.787,253.89z" fill="#bbc3c6" data-original="#61a3c7" class=""/>
	<path style="" d="M497.355,185.323L497.355,185.323c-9.714,9.714-25.609,9.46-34.882-0.675   c-2.808-3.069-5.696-6.089-8.666-9.058C344.816,66.595,167.14,66.608,58.161,175.616c-2.96,2.96-5.838,5.97-8.637,9.029   c-9.273,10.136-25.169,10.391-34.883,0.677l0,0c-0.982-0.982-1.842-2.039-2.622-3.137c-6.795,9.469-5.817,22.694,2.622,31.133l0,0   c9.714,9.714,25.61,9.458,34.883-0.677c2.799-3.059,5.677-6.069,8.637-9.029C167.14,94.605,344.816,94.592,453.808,203.585   c2.97,2.97,5.857,5.989,8.666,9.058c9.273,10.135,25.168,10.389,34.881,0.676l0,0c8.439-8.439,9.416-21.664,2.622-31.133   C499.197,183.284,498.337,184.341,497.355,185.323z" fill="#bbc3c6" data-original="#61a3c7" class=""/>
</g>
<path xmlns="http://www.w3.org/2000/svg" d="M354.483,299.093c-26.487-25.513-61.464-39.564-98.485-39.564c-37.026,0-72.005,14.054-98.493,39.573  c-4.888,4.708-9.468,9.795-13.609,15.116c-9.706,12.466-8.546,30.357,2.689,41.649c0.02,0.021,0.04,0.041,0.061,0.061  c5.964,5.964,13.885,9.249,22.301,9.249c9.883,0,19.077-4.485,25.225-12.307c1.928-2.453,4.032-4.823,6.254-7.045  c14.807-14.808,34.544-22.963,55.573-22.963s40.766,8.155,55.573,22.962c2.218,2.218,4.322,4.588,6.255,7.046  c6.147,7.821,15.341,12.307,25.224,12.307h0.001c8.416,0,16.336-3.285,22.3-9.249c0.021-0.02,0.04-0.04,0.06-0.06  c11.237-11.292,12.396-29.183,2.69-41.651C363.955,308.892,359.374,303.804,354.483,299.093z M354.75,345.319  c-0.016,0.015-0.03,0.03-0.045,0.045c-3.128,3.106-7.264,4.815-11.654,4.815c-5.251,0-10.147-2.398-13.434-6.579  c-2.301-2.926-4.804-5.746-7.44-8.382c-17.64-17.641-41.142-27.355-66.179-27.355s-48.539,9.715-66.179,27.357  c-2.643,2.643-5.145,5.462-7.439,8.382c-3.286,4.18-8.182,6.578-13.433,6.578c-4.39,0-8.526-1.709-11.654-4.814  c-0.016-0.015-0.03-0.03-0.045-0.045c-5.948-5.948-6.601-15.358-1.518-21.888c3.707-4.76,7.804-9.312,12.181-13.528  c23.68-22.812,54.963-35.376,88.088-35.376c33.122,0,64.402,12.56,88.08,35.368c4.378,4.217,8.478,8.771,12.188,13.536  C361.351,329.961,360.699,339.371,354.75,345.319z" fill="#000000" data-original="#000000" style="" class=""/>
<path xmlns="http://www.w3.org/2000/svg" d="M255.998,356.219c-12.067,0-23.411,4.699-31.943,13.231c-8.532,8.532-13.231,19.877-13.231,31.943  s4.699,23.411,13.231,31.943c8.532,8.533,19.877,13.231,31.943,13.231c12.067,0,23.411-4.699,31.943-13.231  c17.613-17.614,17.614-46.273,0-63.887C279.41,360.918,268.065,356.219,255.998,356.219z M277.336,422.733  c-5.699,5.699-13.276,8.839-21.337,8.839c-8.061,0-15.638-3.14-21.338-8.839c-5.699-5.7-8.839-13.277-8.839-21.338  c0-8.06,3.14-15.638,8.84-21.338c5.699-5.699,13.276-8.839,21.337-8.839c8.061,0,15.639,3.14,21.338,8.839  C289.102,391.822,289.101,410.966,277.336,422.733z" fill="#000000" data-original="#000000" style="" class=""/>
<path xmlns="http://www.w3.org/2000/svg" d="M503.72,174.891c-3.357-3.668-6.857-7.325-10.405-10.873C444.51,115.226,383.095,83,315.709,70.825  c-65.862-11.898-132.989-4.029-194.128,22.764c-3.793,1.662-5.52,6.084-3.858,9.878s6.084,5.522,9.878,3.859  c121.551-53.265,260.94-26.849,355.111,67.3c3.392,3.391,6.737,6.887,9.946,10.393c6.002,6.556,5.736,16.658-0.605,22.998  c-3.268,3.268-7.62,5.023-12.229,4.908c-4.559-0.101-8.755-1.999-11.816-5.343c-2.878-3.146-5.87-6.273-8.895-9.299  C404.985,144.155,332.857,114.348,256,114.348c-0.005,0-0.016,0-0.021,0c-76.861,0.005-148.998,29.823-203.121,83.963  c-3.023,3.025-6.006,6.143-8.865,9.269c-3.062,3.346-7.258,5.244-11.817,5.345c-4.642,0.109-8.963-1.641-12.231-4.908  c-6.34-6.34-6.606-16.442-0.605-22.997c3.2-3.496,6.537-6.983,9.92-10.366c21.935-21.936,46.699-40.503,73.6-55.184  c3.636-1.984,4.974-6.54,2.99-10.175c-1.983-3.635-6.539-4.975-10.175-2.991c-28.159,15.367-54.072,34.795-77.022,57.745  c-3.538,3.538-7.028,7.186-10.377,10.843c-11.435,12.491-10.968,31.699,1.063,43.73c6.018,6.018,13.961,9.306,22.439,9.306  c0.242,0,0.485-0.003,0.729-0.008c8.69-0.193,16.698-3.821,22.549-10.216c2.712-2.963,5.54-5.92,8.407-8.789  c51.291-51.305,119.661-79.562,192.516-79.567c0.009,0,0.011,0,0.02,0c72.845,0,141.215,28.25,192.506,79.54  c2.869,2.869,5.707,5.835,8.436,8.818c5.85,6.394,13.857,10.021,22.548,10.214c8.657,0.187,17.069-3.198,23.168-9.298  C514.689,206.591,515.156,187.382,503.72,174.891z" fill="#000000" data-original="#000000" style="" class=""/>
<path xmlns="http://www.w3.org/2000/svg" d="M420.687,228.426c-40.636-38.734-93.997-61.91-150.255-65.26c-4.139-0.242-7.686,2.907-7.931,7.04  c-0.246,4.134,2.906,7.686,7.04,7.932c52.723,3.139,102.726,24.853,140.797,61.145c4.823,4.597,9.483,9.445,13.848,14.408  c5.823,6.621,5.514,16.677-0.703,22.894c-3.292,3.292-7.655,5.021-12.316,4.873c-4.687-0.151-8.983-2.182-12.094-5.719  c-3.422-3.892-7.053-7.697-10.793-11.312c-35.553-34.355-82.528-53.276-132.276-53.278c-0.003,0-0.004,0-0.007,0  c-49.744,0-96.72,18.918-132.272,53.269c-3.749,3.621-7.383,7.43-10.805,11.322c-3.109,3.537-7.403,5.567-12.093,5.717  c-4.649,0.156-9.026-1.581-12.317-4.873c-6.213-6.213-6.563-16.222-0.799-22.785c2.92-3.324,5.979-6.606,9.095-9.757  c38.72-39.163,90.449-62.564,145.659-65.894c4.134-0.25,7.283-3.803,7.034-7.937c-0.25-4.134-3.798-7.292-7.937-7.034  c-58.904,3.553-114.1,28.526-155.421,70.32c-3.321,3.359-6.583,6.858-9.698,10.404c-10.968,12.486-10.325,31.501,1.461,43.288  c6.005,6.005,13.906,9.275,22.351,9.275c0.35,0,0.701-0.005,1.054-0.017c8.747-0.281,17.085-4.219,22.875-10.806  c3.154-3.588,6.505-7.099,9.961-10.439c67.195-64.922,176.523-64.918,243.711,0.008c3.449,3.334,6.798,6.843,9.952,10.43  c5.79,6.586,14.128,10.525,22.875,10.806c8.848,0.284,17.151-3.004,23.405-9.259c11.794-11.795,12.391-30.86,1.358-43.404  C430.794,238.493,425.829,233.326,420.687,228.426z" fill="#000000" data-original="#000000" style="" class=""/>
<g xmlns="http://www.w3.org/2000/svg">
</g>
<g xmlns="http://www.w3.org/2000/svg">
</g>
<g xmlns="http://www.w3.org/2000/svg">
</g>
<g xmlns="http://www.w3.org/2000/svg">
</g>
<g xmlns="http://www.w3.org/2000/svg">
</g>
<g xmlns="http://www.w3.org/2000/svg">
</g>
<g xmlns="http://www.w3.org/2000/svg">
</g>
<g xmlns="http://www.w3.org/2000/svg">
</g>
<g xmlns="http://www.w3.org/2000/svg">
</g>
<g xmlns="http://www.w3.org/2000/svg">
</g>
<g xmlns="http://www.w3.org/2000/svg">
</g>
<g xmlns="http://www.w3.org/2000/svg">
</g>
<g xmlns="http://www.w3.org/2000/svg">
</g>
<g xmlns="http://www.w3.org/2000/svg">
</g>
<g xmlns="http://www.w3.org/2000/svg">
</g>
</g></svg>
